<svg width="58" height="58" viewBox="0 0 58 58" fill="none" xmlns="http://www.w3.org/2000/svg">
<path d="M39.959 33.0187H10.057L35.9508 16.5551C36.0261 16.5072 36.0913 16.4449 36.1426 16.3718C36.1939 16.2987 36.2302 16.2163 36.2496 16.1291C36.269 16.042 36.2711 15.9519 36.2556 15.8639C36.2402 15.776 36.2076 15.692 36.1597 15.6166L33.5942 11.5818C33.0091 10.6638 32.0838 10.0154 31.0213 9.77879C29.9587 9.54221 28.8457 9.73678 27.9264 10.3198L24.2827 12.6365L24.5714 11.2555C24.6851 10.7562 24.6991 10.2394 24.6125 9.73466C24.526 9.22993 24.3405 8.74729 24.0668 8.31447C23.7931 7.88164 23.4366 7.50716 23.0178 7.21253C22.5989 6.91791 22.126 6.70895 21.6261 6.59766C21.1263 6.48637 20.6093 6.47495 20.1051 6.56405C19.6008 6.65315 19.1191 6.84101 18.6876 7.11684C18.2562 7.39268 17.8834 7.75105 17.5909 8.17136C17.2984 8.59167 17.0918 9.06565 16.983 9.56605L15.09 18.0683L8.75185 16.6575C7.80663 16.4468 6.81682 16.5965 5.97621 17.0774C5.13559 17.5582 4.50472 18.3354 4.20711 19.257C3.9095 20.1785 3.96658 21.178 4.36718 22.0596C4.76779 22.9413 5.48305 23.6417 6.37294 24.0237L2.4695 26.5057C1.55154 27.0907 0.903145 28.016 0.666564 29.0786C0.429983 30.1411 0.624538 31.2541 1.20754 32.1734L3.77302 36.2083C3.82091 36.2837 3.88316 36.3488 3.95623 36.4001C4.0293 36.4514 4.11176 36.4878 4.19889 36.5072C4.28602 36.5266 4.37612 36.5287 4.46405 36.5132C4.55197 36.4978 4.636 36.4652 4.71133 36.4173L7.0993 34.8994V52.1054C7.10053 53.194 7.53353 54.2376 8.30329 55.0074C9.07305 55.7771 10.1167 56.21 11.2053 56.2112H36.5332C37.6217 56.21 38.6653 55.777 39.435 55.0073C40.2047 54.2376 40.6377 53.194 40.6389 52.1054V33.6984C40.6389 33.6091 40.6213 33.5207 40.5872 33.4382C40.553 33.3557 40.5029 33.2808 40.4398 33.2177C40.3766 33.1545 40.3017 33.1045 40.2192 33.0703C40.1367 33.0362 40.0483 33.0186 39.959 33.0187ZM28.6558 11.4671C29.0942 11.1868 29.6037 11.0377 30.1241 11.0373C30.3266 11.0375 30.5286 11.0598 30.7263 11.1038C31.0787 11.1813 31.4122 11.328 31.7075 11.5352C32.0029 11.7424 32.2542 12.0062 32.447 12.3112L34.6478 15.7725L23.9428 22.5791L20.2684 16.8002L28.6558 11.4671ZM18.3098 9.8616C18.4567 9.20747 18.8574 8.63846 19.4237 8.27975C19.9901 7.92104 20.6758 7.80201 21.3299 7.94885C21.9841 8.09569 22.5531 8.49637 22.9118 9.06274C23.2705 9.62912 23.3895 10.3148 23.2427 10.9689L22.6847 13.6383L16.6052 17.5181L18.3098 9.8616ZM19.1209 17.5296L22.7953 23.3085L16.592 27.2525L12.9178 21.4736L19.1209 17.5296ZM5.77402 21.808C5.50576 21.3861 5.36862 20.8942 5.37996 20.3943C5.3913 19.8945 5.5506 19.4093 5.83772 19C6.12484 18.5907 6.52689 18.2757 6.99301 18.095C7.45914 17.9142 7.96841 17.8757 8.45641 17.9843L13.9489 19.2071L7.85183 23.0291L7.3577 22.919C7.03338 22.8477 6.72643 22.7128 6.45459 22.5221C6.18276 22.3314 5.95144 22.0887 5.77402 21.808ZM4.55568 34.9055L2.35497 31.4441C1.96499 30.8292 1.83483 30.0847 1.99304 29.374C2.15126 28.6632 2.58493 28.0443 3.19892 27.6529L11.7706 22.203L15.4448 27.982L4.55568 34.9055ZM17.7363 54.8518H11.2053C10.4772 54.851 9.7791 54.5614 9.26423 54.0465C8.74936 53.5316 8.45974 52.8336 8.4589 52.1054V34.378H17.7366L17.7363 54.8518ZM26.3756 54.8518H19.0957V34.378H26.3756V54.8518ZM39.2793 52.1054C39.2785 52.8335 38.9889 53.5316 38.4741 54.0464C37.9593 54.5613 37.2613 54.8509 36.5332 54.8518H27.735V34.378H39.2793V52.1054Z" fill="url(#paint0_linear)"/>
<path d="M47.5592 26.8443L47.8843 24.9485C47.9057 24.8236 47.8918 24.6951 47.844 24.5777C47.7962 24.4603 47.7165 24.3585 47.614 24.284C47.5114 24.2095 47.3901 24.1651 47.2636 24.1559C47.1372 24.1467 47.0107 24.1731 46.8984 24.232L45.1961 25.1269L43.4935 24.232C43.3813 24.173 43.2548 24.1466 43.1283 24.1557C43.0018 24.1648 42.8803 24.2092 42.7777 24.2837C42.6751 24.3583 42.5954 24.46 42.5476 24.5775C42.4998 24.695 42.4859 24.8235 42.5073 24.9485L42.8324 26.8443L41.4552 28.1867C41.3643 28.2752 41.3001 28.3874 41.2696 28.5105C41.2392 28.6336 41.2439 28.7628 41.2831 28.8835C41.3223 29.0041 41.3944 29.1114 41.4914 29.1931C41.5884 29.2749 41.7063 29.3279 41.8318 29.3461L43.735 29.6227L44.5861 31.3474C44.6423 31.4612 44.7291 31.557 44.8368 31.624C44.9445 31.691 45.0689 31.7265 45.1957 31.7265C45.3226 31.7265 45.4469 31.691 45.5546 31.624C45.6623 31.557 45.7492 31.4612 45.8053 31.3474L46.6564 29.6227L48.5595 29.3461C48.685 29.3279 48.8029 29.2749 48.8999 29.1931C48.9969 29.1114 49.0691 29.0041 49.1082 28.8835C49.1474 28.7628 49.1521 28.6336 49.1217 28.5105C49.0913 28.3874 49.027 28.2752 48.9362 28.1867L47.5592 26.8443ZM46.1073 28.3283C45.9982 28.3441 45.8947 28.3862 45.8055 28.451C45.7163 28.5158 45.6443 28.6012 45.5955 28.7001L45.1957 29.5103L44.7958 28.7001C44.7471 28.6013 44.675 28.5158 44.5859 28.451C44.4967 28.3863 44.3932 28.3441 44.2841 28.3283L43.3899 28.1983L44.037 27.5677C44.1159 27.4908 44.1749 27.3958 44.209 27.291C44.243 27.1862 44.2511 27.0747 44.2325 26.9661L44.0797 26.0755L44.8794 26.4958C44.977 26.5472 45.0855 26.574 45.1957 26.574C45.3059 26.574 45.4145 26.5472 45.512 26.4958L46.3116 26.0755L46.1589 26.9661C46.1403 27.0747 46.1484 27.1862 46.1824 27.291C46.2164 27.3958 46.2755 27.4908 46.3544 27.5677L47.0014 28.1983L46.1073 28.3283Z" fill="url(#paint1_linear)"/>
<path d="M55.3765 17.4793L53.5074 17.025L52.8219 15.228C52.7768 15.1095 52.6993 15.006 52.5984 14.9292C52.4974 14.8524 52.377 14.8053 52.2507 14.7934C52.1244 14.7815 51.9973 14.8051 51.8838 14.8617C51.7703 14.9182 51.6748 15.0054 51.6082 15.1134L50.5988 16.7507L48.6779 16.8473C48.5512 16.8537 48.4289 16.8953 48.3247 16.9676C48.2205 17.0399 48.1386 17.1399 48.0882 17.2563C48.0379 17.3727 48.0211 17.5008 48.0398 17.6262C48.0584 17.7517 48.1119 17.8694 48.1939 17.966L49.439 19.432L48.9375 21.2887C48.9044 21.4111 48.9062 21.5404 48.9428 21.6618C48.9793 21.7833 49.0491 21.8921 49.1443 21.9759C49.2394 22.0598 49.3561 22.1154 49.4812 22.1363C49.6063 22.1573 49.7347 22.1429 49.852 22.0947L51.6305 21.3636L53.2422 22.4145C53.3484 22.4838 53.4719 22.522 53.5987 22.5247C53.7255 22.5275 53.8505 22.4948 53.9596 22.4302C54.0688 22.3656 54.1577 22.2718 54.2163 22.1593C54.2749 22.0469 54.3009 21.9203 54.2913 21.7938L54.1457 19.876L55.6425 18.6687C55.7412 18.5891 55.8157 18.4835 55.8575 18.3638C55.8993 18.2441 55.9068 18.1151 55.8791 17.9914C55.8514 17.8676 55.7897 17.7541 55.7009 17.6636C55.6121 17.5731 55.4997 17.5093 55.3765 17.4793ZM53.0139 19.0426C52.9282 19.1117 52.8605 19.2007 52.8168 19.3019C52.773 19.403 52.7546 19.5133 52.7629 19.6231L52.8309 20.524L52.074 20.0303C51.9818 19.9701 51.8762 19.9332 51.7665 19.9229C51.6568 19.9125 51.5462 19.929 51.4443 19.9709L50.6088 20.3144L50.8444 19.4421C50.8731 19.3357 50.8756 19.224 50.8515 19.1164C50.8275 19.0089 50.7776 18.9088 50.7063 18.8248L50.1214 18.1362L51.0238 18.0909C51.1339 18.0854 51.241 18.0532 51.3358 17.9971C51.4307 17.941 51.5105 17.8627 51.5684 17.7689L52.0424 16.9999L52.3644 17.844C52.4037 17.947 52.4674 18.0388 52.5501 18.1117C52.6327 18.1845 52.7319 18.2361 52.8389 18.2622L53.717 18.4756L53.0139 19.0426Z" fill="url(#paint2_linear)"/>
<path d="M45.3805 6.43017L44.8788 8.28685C44.8456 8.40929 44.8475 8.53856 44.884 8.66002C44.9205 8.78149 44.9903 8.89032 45.0854 8.97419C45.1806 9.05806 45.2973 9.11364 45.4224 9.13463C45.5475 9.15562 45.676 9.14118 45.7933 9.09296L47.5718 8.36173L49.1828 9.41287C49.289 9.48216 49.4125 9.52035 49.5393 9.52313C49.6661 9.5259 49.7911 9.49314 49.9003 9.42855C50.0094 9.36396 50.0983 9.27013 50.1569 9.15765C50.2155 9.04517 50.2415 8.91854 50.2319 8.79208L50.0863 6.87423L51.5834 5.66688C51.6821 5.58728 51.7566 5.48166 51.7984 5.36196C51.8402 5.24225 51.8477 5.11325 51.82 4.98951C51.7923 4.86577 51.7306 4.75224 51.6418 4.66175C51.553 4.57126 51.4406 4.50741 51.3174 4.47743L49.4483 4.02328L48.763 2.22619C48.7178 2.10767 48.6403 2.00417 48.5393 1.92739C48.4384 1.8506 48.3179 1.8036 48.1917 1.7917C48.0654 1.77979 47.9383 1.80346 47.8248 1.86003C47.7112 1.91659 47.6158 2.00379 47.5493 2.11177L46.5399 3.74892L44.6189 3.84543C44.4922 3.85179 44.3699 3.89345 44.2657 3.96572C44.1614 4.03799 44.0795 4.13797 44.0292 4.25437C43.9788 4.37076 43.962 4.49893 43.9807 4.62437C43.9994 4.74981 44.0528 4.86752 44.1348 4.9642L45.3805 6.43017ZM46.9654 5.08847C47.0755 5.08294 47.1825 5.05074 47.2774 4.99463C47.3722 4.93853 47.452 4.8602 47.5098 4.76641L47.984 3.99734L48.306 4.84151C48.3452 4.94447 48.409 5.03634 48.4916 5.1092C48.5743 5.18205 48.6734 5.23372 48.7805 5.25975L49.6584 5.47306L48.9552 6.04014C48.8694 6.1093 48.8017 6.19829 48.758 6.29943C48.7142 6.40057 48.6957 6.51083 48.704 6.62071L48.772 7.52175L48.0152 7.02795C47.9229 6.96776 47.8173 6.9309 47.7076 6.92056C47.5979 6.91022 47.4874 6.9267 47.3855 6.9686L46.5499 7.31206L46.7855 6.4398C46.8143 6.33341 46.8167 6.22162 46.7927 6.11406C46.7686 6.00651 46.7188 5.90642 46.6474 5.82242L46.0626 5.13367L46.9654 5.08847Z" fill="url(#paint3_linear)"/>
<path d="M33.0494 26.9423C31.5148 27.908 30.7652 29.0782 30.734 29.1276C30.6375 29.2798 30.6053 29.4641 30.6447 29.6401C30.6841 29.816 30.7917 29.969 30.944 30.0656C31.0962 30.1621 31.2806 30.1943 31.4565 30.1549C31.6324 30.1155 31.7854 30.0079 31.882 29.8556C31.9839 29.697 34.4432 25.9797 39.7958 27.3037C39.9701 27.3452 40.1538 27.3161 40.3068 27.2228C40.4597 27.1296 40.5697 26.9797 40.6128 26.8058C40.6558 26.6318 40.6285 26.448 40.5366 26.2941C40.4448 26.1403 40.2959 26.0289 40.1224 25.9842C36.8291 25.1694 34.4582 26.0554 33.0494 26.9423Z" fill="url(#paint4_linear)"/>
<path d="M45.9469 19.7441C46.1134 19.8132 46.3005 19.8133 46.4671 19.7444C46.6337 19.6756 46.7662 19.5433 46.8353 19.3768C46.9044 19.2103 46.9045 19.0232 46.8356 18.8566C46.7667 18.69 46.6345 18.5576 46.468 18.4885C41.6293 16.4803 38.1125 17.9841 36.0144 19.5995C34.6225 20.682 33.4704 22.0416 32.6309 23.5922C32.5912 23.6722 32.5677 23.7592 32.5616 23.8482C32.5555 23.9373 32.567 24.0267 32.5955 24.1113C32.6239 24.1959 32.6688 24.274 32.7274 24.3413C32.7861 24.4086 32.8575 24.4636 32.9374 24.5033C33.0173 24.543 33.1043 24.5666 33.1934 24.5727C33.2824 24.5787 33.3718 24.5672 33.4564 24.5388C33.541 24.5103 33.6192 24.4655 33.6864 24.4068C33.7537 24.3481 33.8088 24.2768 33.8485 24.1968C34.5975 22.8322 35.6166 21.6345 36.8436 20.6766C39.4817 18.646 42.5445 18.332 45.9469 19.7441Z" fill="url(#paint5_linear)"/>
<path d="M38.3092 14.7089C38.2538 14.8804 38.2687 15.0669 38.3507 15.2274C38.4328 15.3879 38.5752 15.5092 38.7467 15.5647C39.6825 15.8404 40.6529 15.9807 41.6284 15.9812C42.765 15.9812 44.0778 15.776 45.2551 15.0782C46.7957 14.1654 47.7835 12.6101 48.1929 10.4563C48.2099 10.3685 48.2094 10.2782 48.1915 10.1905C48.1735 10.1029 48.1384 10.0196 48.0882 9.94559C48.038 9.87154 47.9736 9.80814 47.8989 9.759C47.8241 9.70987 47.7404 9.67599 47.6525 9.65929C47.5646 9.64259 47.4743 9.6434 47.3867 9.66169C47.2991 9.67997 47.216 9.71537 47.1422 9.76584C47.0683 9.81631 47.0051 9.88087 46.9563 9.95582C46.9074 10.0308 46.8738 10.1146 46.8574 10.2026C46.5246 11.954 45.7543 13.2 44.5679 13.9057C42.3112 15.2485 39.2134 14.2871 39.1644 14.2715C38.993 14.2162 38.8067 14.2313 38.6463 14.3133C38.486 14.3953 38.3647 14.5376 38.3092 14.7089Z" fill="url(#paint6_linear)"/>
<path d="M29.3248 32.2708C29.5669 32.2708 29.8036 32.199 30.0049 32.0645C30.2062 31.93 30.3631 31.7388 30.4558 31.5152C30.5485 31.2915 30.5727 31.0454 30.5255 30.8079C30.4783 30.5704 30.3617 30.3523 30.1905 30.1811C30.0193 30.0099 29.8012 29.8933 29.5637 29.846C29.3263 29.7988 29.0802 29.823 28.8565 29.9157C28.6328 30.0083 28.4416 30.1652 28.3071 30.3665C28.1726 30.5678 28.1008 30.8045 28.1008 31.0466C28.1012 31.3711 28.2302 31.6823 28.4597 31.9117C28.6892 32.1412 29.0003 32.2703 29.3248 32.2708ZM29.3248 30.9114C29.3516 30.9113 29.3778 30.9193 29.4 30.9341C29.4223 30.949 29.4397 30.9701 29.4499 30.9949C29.4602 31.0196 29.4629 31.0469 29.4577 31.0731C29.4525 31.0994 29.4396 31.1235 29.4206 31.1425C29.4017 31.1614 29.3775 31.1743 29.3513 31.1795C29.325 31.1847 29.2978 31.182 29.273 31.1718C29.2483 31.1615 29.2272 31.1442 29.2123 31.1219C29.1974 31.0996 29.1895 31.0734 29.1895 31.0466C29.1897 31.0108 29.204 30.9765 29.2293 30.9512C29.2547 30.9259 29.289 30.9116 29.3248 30.9114Z" fill="url(#paint7_linear)"/>
<path d="M38.9559 10.0676C39.198 10.0676 39.4347 9.99582 39.636 9.86132C39.8373 9.72681 39.9942 9.53563 40.0869 9.31195C40.1795 9.08827 40.2038 8.84214 40.1565 8.60469C40.1093 8.36723 39.9927 8.14912 39.8215 7.97792C39.6503 7.80672 39.4322 7.69014 39.1947 7.64291C38.9573 7.59567 38.7112 7.61991 38.4875 7.71257C38.2638 7.80522 38.0726 7.96211 37.9381 8.16342C37.8036 8.36472 37.7318 8.60139 37.7318 8.8435C37.7322 9.16805 37.8613 9.4792 38.0907 9.70869C38.3202 9.93817 38.6314 10.0673 38.9559 10.0676ZM38.9559 8.70824C38.9827 8.70824 39.0089 8.71619 39.0312 8.73107C39.0534 8.74595 39.0708 8.76709 39.081 8.79184C39.0912 8.81658 39.0939 8.8438 39.0887 8.87007C39.0835 8.89633 39.0706 8.92045 39.0516 8.93938C39.0327 8.9583 39.0085 8.97119 38.9823 8.9764C38.956 8.98161 38.9288 8.97891 38.904 8.96865C38.8793 8.95839 38.8582 8.94102 38.8433 8.91874C38.8285 8.89646 38.8205 8.87028 38.8206 8.8435C38.8207 8.80766 38.8351 8.77335 38.8604 8.74802C38.8858 8.72269 38.9201 8.70839 38.9559 8.70824Z" fill="url(#paint8_linear)"/>
<path d="M56.2095 9.13416C55.9674 9.13416 55.7307 9.20595 55.5294 9.34046C55.3281 9.47498 55.1712 9.66616 55.0785 9.88985C54.9859 10.1135 54.9616 10.3597 55.0089 10.5971C55.0561 10.8346 55.1727 11.0527 55.3439 11.2239C55.5151 11.3951 55.7333 11.5117 55.9707 11.5589C56.2082 11.6061 56.4543 11.5818 56.678 11.4892C56.9017 11.3965 57.0929 11.2396 57.2274 11.0383C57.3618 10.837 57.4336 10.6003 57.4336 10.3582C57.4332 10.0336 57.3041 9.72248 57.0747 9.49301C56.8452 9.26354 56.534 9.13449 56.2095 9.13416ZM56.2095 10.4935C56.1827 10.4935 56.1565 10.4856 56.1343 10.4707C56.112 10.4558 56.0947 10.4347 56.0844 10.41C56.0742 10.3852 56.0715 10.358 56.0767 10.3317C56.0819 10.3055 56.0948 10.2814 56.1138 10.2624C56.1327 10.2435 56.1568 10.2306 56.1831 10.2254C56.2093 10.2202 56.2365 10.2228 56.2613 10.2331C56.286 10.2433 56.3072 10.2607 56.322 10.283C56.3369 10.3052 56.3448 10.3314 56.3448 10.3582C56.3447 10.394 56.3304 10.4284 56.305 10.4537C56.2797 10.4791 56.2453 10.4934 56.2095 10.4935Z" fill="url(#paint9_linear)"/>
<path d="M28.8237 25.378C28.8237 25.1359 28.7519 24.8992 28.6174 24.6979C28.4828 24.4966 28.2916 24.3397 28.0679 24.247C27.8442 24.1544 27.598 24.1302 27.3605 24.1775C27.1231 24.2248 26.905 24.3414 26.7338 24.5127C26.5626 24.684 26.4461 24.9022 26.3989 25.1396C26.3518 25.3771 26.3761 25.6233 26.4689 25.847C26.5616 26.0706 26.7186 26.2618 26.92 26.3962C27.1214 26.5306 27.3581 26.6023 27.6003 26.6022C27.9247 26.6017 28.2357 26.4725 28.4651 26.243C28.6944 26.0135 28.8234 25.7025 28.8237 25.378ZM27.6003 25.514C27.5735 25.514 27.5474 25.5061 27.5251 25.4913C27.5028 25.4764 27.4855 25.4553 27.4752 25.4306C27.4649 25.4059 27.4622 25.3787 27.4673 25.3525C27.4725 25.3262 27.4853 25.3021 27.5042 25.2831C27.5231 25.2642 27.5472 25.2512 27.5734 25.2459C27.5996 25.2406 27.6268 25.2432 27.6516 25.2534C27.6763 25.2635 27.6975 25.2808 27.7124 25.303C27.7274 25.3252 27.7354 25.3513 27.7355 25.378C27.7354 25.414 27.721 25.4484 27.6956 25.4738C27.6701 25.4991 27.6357 25.5134 27.5997 25.5134L27.6003 25.514Z" fill="url(#paint10_linear)"/>
<path d="M54.1937 26.1466C53.9516 26.1466 53.7149 26.2184 53.5136 26.3529C53.3123 26.4874 53.1554 26.6786 53.0628 26.9023C52.9701 27.126 52.9459 27.3721 52.9931 27.6095C53.0404 27.847 53.1569 28.0651 53.3281 28.2363C53.4993 28.4075 53.7175 28.5241 53.9549 28.5713C54.1924 28.6186 54.4385 28.5943 54.6622 28.5017C54.8858 28.409 55.077 28.2521 55.2115 28.0508C55.346 27.8495 55.4178 27.6128 55.4178 27.3707C55.4175 27.0462 55.2884 26.735 55.0589 26.5055C54.8294 26.2761 54.5183 26.147 54.1937 26.1466ZM54.1937 27.506C54.167 27.506 54.1408 27.498 54.1186 27.4831C54.0964 27.4683 54.0791 27.4471 54.0688 27.4224C54.0586 27.3977 54.056 27.3705 54.0612 27.3443C54.0664 27.318 54.0793 27.2939 54.0982 27.275C54.1172 27.2561 54.1413 27.2433 54.1675 27.2381C54.1937 27.2328 54.2209 27.2355 54.2456 27.2458C54.2703 27.256 54.2914 27.2733 54.3063 27.2956C54.3212 27.3178 54.3291 27.344 54.3291 27.3707C54.3289 27.4066 54.3146 27.4409 54.2892 27.4662C54.2639 27.4915 54.2296 27.5058 54.1937 27.506Z" fill="url(#paint11_linear)"/>
<defs>
<linearGradient id="paint0_linear" x1="1.71317" y1="31.358" x2="40.6389" y2="31.358" gradientUnits="userSpaceOnUse">
<stop stop-color="#015AAD"/>
<stop offset="1" stop-color="#00B74F"/>
</linearGradient>
<linearGradient id="paint1_linear" x1="41.4753" y1="27.9402" x2="49.1415" y2="27.9402" gradientUnits="userSpaceOnUse">
<stop stop-color="#015AAD"/>
<stop offset="1" stop-color="#00B74F"/>
</linearGradient>
<linearGradient id="paint2_linear" x1="48.257" y1="18.6577" x2="55.8955" y2="18.6577" gradientUnits="userSpaceOnUse">
<stop stop-color="#015AAD"/>
<stop offset="1" stop-color="#00B74F"/>
</linearGradient>
<linearGradient id="paint3_linear" x1="44.1979" y1="5.65599" x2="51.8364" y2="5.65599" gradientUnits="userSpaceOnUse">
<stop stop-color="#015AAD"/>
<stop offset="1" stop-color="#00B74F"/>
</linearGradient>
<linearGradient id="paint4_linear" x1="30.9141" y1="27.9169" x2="40.6327" y2="27.9169" gradientUnits="userSpaceOnUse">
<stop stop-color="#015AAD"/>
<stop offset="1" stop-color="#00B74F"/>
</linearGradient>
<linearGradient id="paint5_linear" x1="32.9693" y1="21.0493" x2="46.8872" y2="21.0493" gradientUnits="userSpaceOnUse">
<stop stop-color="#015AAD"/>
<stop offset="1" stop-color="#00B74F"/>
</linearGradient>
<linearGradient id="paint6_linear" x1="38.5599" y1="12.8142" x2="48.2053" y2="12.8142" gradientUnits="userSpaceOnUse">
<stop stop-color="#015AAD"/>
<stop offset="1" stop-color="#00B74F"/>
</linearGradient>
<linearGradient id="paint7_linear" x1="28.1707" y1="31.0466" x2="30.549" y2="31.0466" gradientUnits="userSpaceOnUse">
<stop stop-color="#015AAD"/>
<stop offset="1" stop-color="#00B74F"/>
</linearGradient>
<linearGradient id="paint8_linear" x1="37.8018" y1="8.8435" x2="40.18" y2="8.8435" gradientUnits="userSpaceOnUse">
<stop stop-color="#015AAD"/>
<stop offset="1" stop-color="#00B74F"/>
</linearGradient>
<linearGradient id="paint9_linear" x1="55.0553" y1="10.3583" x2="57.4336" y2="10.3583" gradientUnits="userSpaceOnUse">
<stop stop-color="#015AAD"/>
<stop offset="1" stop-color="#00B74F"/>
</linearGradient>
<linearGradient id="paint10_linear" x1="26.4454" y1="25.378" x2="28.8237" y2="25.378" gradientUnits="userSpaceOnUse">
<stop stop-color="#015AAD"/>
<stop offset="1" stop-color="#00B74F"/>
</linearGradient>
<linearGradient id="paint11_linear" x1="53.0396" y1="27.3707" x2="55.4178" y2="27.3707" gradientUnits="userSpaceOnUse">
<stop stop-color="#015AAD"/>
<stop offset="1" stop-color="#00B74F"/>
</linearGradient>
</defs>
</svg>
