<svg width="169" height="28" viewBox="0 0 169 28" fill="none" xmlns="http://www.w3.org/2000/svg">
<path d="M113.002 15.7678C112.656 15.9735 112.342 16.2369 112.071 16.5472C112.342 16.2369 112.656 15.9735 113.002 15.7678Z" fill="#E10600"/>
<path d="M117.084 15.4648C117.088 15.4903 117.088 15.512 117.084 15.5374C117.088 15.512 117.088 15.4866 117.084 15.4648Z" fill="#E10600"/>
<path d="M117.026 15.3311C117.059 15.3674 117.077 15.4145 117.084 15.4617C117.077 15.4145 117.055 15.371 117.026 15.3311Z" fill="#E10600"/>
<path d="M117.019 15.6742L110.552 23.1938L117.019 15.6742C117.059 15.6309 117.077 15.584 117.084 15.5334C117.077 15.584 117.055 15.6345 117.019 15.6742Z" fill="white"/>
<path d="M117.084 15.5371C117.088 15.5118 117.088 15.4866 117.084 15.4649C117.077 15.418 117.055 15.3711 117.026 15.335C116.979 15.2773 116.911 15.2412 116.824 15.2412H114.929C114.244 15.2412 113.58 15.4288 113.002 15.7716C112.656 15.9773 112.342 16.2407 112.071 16.551L109.079 20.0185V23.9804C110.046 23.8433 110.552 23.1974 110.552 23.1974L117.019 15.6778C117.055 15.6345 117.077 15.584 117.084 15.5371ZM116.882 15.5587L110.407 23.0856C110.404 23.0928 110.01 23.5871 109.26 23.7639V20.0871L112.208 16.6701C112.89 15.8763 113.883 15.4216 114.929 15.4216H116.824C116.871 15.4216 116.889 15.4505 116.896 15.4685C116.907 15.483 116.914 15.519 116.882 15.5587Z" fill="white"/>
<path d="M116.9 15.4683C116.893 15.4503 116.871 15.4214 116.828 15.4214H114.933C113.886 15.4214 112.894 15.876 112.212 16.6698L109.263 20.0869L109.083 20.2925V23.8034L109.263 23.7637C110.014 23.5869 110.407 23.0925 110.411 23.0853L116.882 15.5585C116.914 15.5188 116.907 15.4827 116.9 15.4683Z" fill="#E10600"/>
<path d="M41.6549 27.3151L35.9851 10.4285H39.605L43.7301 23.4074L47.8336 10.4285H51.4787L45.7837 27.3151H41.6549Z" fill="white"/>
<path d="M59.2814 10.4277C60.8983 10.4277 62.2733 10.9834 63.3849 12.0695C64.4965 13.1556 65.0487 14.5051 65.0487 16.0999C65.0487 17.6912 64.4929 19.0443 63.3849 20.1303C62.2733 21.2164 60.8983 21.7721 59.2814 21.7721H56.3148V27.3216H52.9836V10.4349H59.2814V10.4277ZM59.2814 18.6546C60.7034 18.6546 61.7428 17.5432 61.7428 16.0963C61.7428 14.6241 60.7034 13.5381 59.2814 13.5381H56.3148V18.651H59.2814V18.6546Z" fill="white"/>
<path d="M79.0373 22.418C79.0373 23.8396 78.532 25.0231 77.5179 25.9396C76.5037 26.8561 75.2514 27.3144 73.7789 27.3144H66.6113V10.4277H73.27C74.7172 10.4277 75.9227 10.886 76.9151 11.7772C77.904 12.6685 78.4129 13.8051 78.4129 15.1798C78.4129 16.5798 77.8824 17.7128 76.8213 18.5571C78.2866 19.4015 79.0373 20.7041 79.0373 22.418ZM69.9389 13.5417V17.2582H73.27C74.3094 17.2582 75.0781 16.4607 75.0781 15.3999C75.0781 14.3391 74.3311 13.5417 73.27 13.5417H69.9389ZM73.7753 24.2041C74.9085 24.2041 75.7314 23.3597 75.7314 22.2015C75.7314 21.0685 74.9121 20.2242 73.7753 20.2242H69.9389V24.2041H73.7753Z" fill="white"/>
<path d="M103.647 16.2443C104.517 17.1355 104.95 18.3443 104.95 19.9103V27.318H101.839V20.2964C101.839 18.6799 100.897 17.8103 99.4502 17.8103C97.8333 17.8103 96.7975 18.7989 96.7975 20.8015V27.3144H93.6865V15.252H96.7975V16.6015C97.5446 15.4685 98.7536 14.9128 100.392 14.9128C101.717 14.9165 102.803 15.3494 103.647 16.2443Z" fill="white"/>
<path d="M109.083 20.5597V27.3144H105.972V10.4277H109.083V20.5597Z" fill="white"/>
<path d="M89.5468 15.252V16.6737C88.6049 15.4902 87.302 14.9128 85.613 14.9128C83.9961 14.9128 82.6211 15.5407 81.4626 16.7711C80.3293 18.0015 79.7483 19.4953 79.7483 21.2814C79.7483 23.0675 80.3293 24.5866 81.4626 25.817C82.6211 27.0474 83.9961 27.65 85.613 27.65C87.302 27.65 88.6049 27.0727 89.5468 25.8892V27.3108H92.6578V15.2484H89.5468V15.252ZM86.1688 24.767C84.2379 24.767 82.6716 23.201 82.6716 21.2706C82.6716 19.3402 84.2379 17.7742 86.1688 17.7742C88.0996 17.7742 89.6659 19.3402 89.6659 21.2706C89.6623 23.201 88.0996 24.767 86.1688 24.767Z" fill="white"/>
<path d="M32.8235 10.4892C32.6611 10.1176 32.3074 9.88663 31.8996 9.88663H28.2472C25.9988 9.88663 23.8658 10.8572 22.3861 12.5459L23.144 11.6655C23.9127 10.7743 24.3386 9.63405 24.3386 8.45415V1.0031C24.3386 0.451032 23.8875 0 23.3317 0C23.0394 0 22.7723 0.122681 22.5774 0.350001L16.5756 7.30311L16.4565 7.44384L16.3374 7.30311L10.3355 0.350001C10.1406 0.126289 9.87356 0 9.58122 0C9.02543 0 8.5743 0.451032 8.5743 1.0031V8.45415C8.5743 9.63044 8.99656 10.7706 9.76889 11.6655L10.5268 12.5459C9.04709 10.8536 6.91414 9.88663 4.66571 9.88663H1.01335C0.609142 9.88663 0.255456 10.1176 0.0894401 10.4892C-0.0765759 10.8609 -0.0080076 11.2758 0.26628 11.5753L12.7247 26.0624C12.8402 26.2068 13.9157 27.4733 15.879 27.7511L16.4492 27.8305H16.4528L17.0231 27.7511C18.9864 27.4769 20.0619 26.2068 20.1774 26.0624L32.6466 11.5645C32.9209 11.2794 32.9859 10.8609 32.8235 10.4892ZM23.3317 0.512366C23.3389 0.512366 23.3461 0.515978 23.3569 0.515978C23.3136 0.51237 23.2703 0.515978 23.227 0.526803C23.2631 0.515978 23.2992 0.512366 23.3317 0.512366ZM9.55957 0.512366C9.56679 0.512366 9.57401 0.508766 9.58484 0.508766C9.62093 0.508766 9.65341 0.512374 9.6895 0.51959C9.64619 0.515982 9.60288 0.512366 9.55957 0.512366Z" fill="white"/>
<path d="M31.8995 10.3953H28.2472C26.1286 10.3953 24.1148 11.3154 22.7325 12.921L16.9617 19.6108V27.253C18.8239 26.9933 19.7984 25.7412 19.7984 25.7412L32.2712 11.236C32.5672 10.9148 32.3362 10.3953 31.8995 10.3953Z" fill="#E10600"/>
<path d="M1.01682 10.3953H4.66917C6.78768 10.3953 8.80153 11.3154 10.1838 12.921L15.9547 19.6108V27.253C14.0924 26.9933 13.118 25.7412 13.118 25.7412L0.645091 11.236C0.349149 10.9148 0.580127 10.3953 1.01682 10.3953Z" fill="#E10600"/>
<path d="M23.8332 1.01037V8.46142C23.8332 9.51864 23.4543 10.5398 22.7613 11.3408L16.958 18.0666V7.63873L22.9598 0.685625C23.263 0.335624 23.8332 0.548509 23.8332 1.01037Z" fill="#E10600"/>
<path d="M9.08301 1.01037V8.46142C9.08301 9.51864 9.46196 10.5398 10.1549 11.3408L15.9582 18.0666V7.63873L9.9564 0.685625C9.65324 0.335624 9.08301 0.548509 9.08301 1.01037Z" fill="#E10600"/>
<path d="M116.824 15.2378H114.929C113.832 15.2378 112.789 15.7141 112.071 16.5476L109.079 20.0151V23.977C110.046 23.8399 110.552 23.194 110.552 23.194L117.019 15.6744C117.171 15.5084 117.051 15.2378 116.824 15.2378Z" fill="#E10600"/>
<path d="M112.428 21.4658L111.551 22.4509C111.024 23.0426 111.01 23.9339 111.519 24.5437C112.424 25.6261 113.782 27.3184 113.782 27.3184H117.228L112.428 21.4658Z" fill="white"/>
<path d="M117.178 15.3423C117.116 15.2015 116.979 15.1113 116.824 15.1113H114.929C113.793 15.1113 112.717 15.6057 111.974 16.4644L108.949 19.968V20.3577L109.202 20.0619L112.165 16.6268C112.858 15.8221 113.865 15.3603 114.929 15.3603H116.824C116.907 15.3603 116.94 15.4216 116.947 15.4397C116.954 15.4577 116.979 15.5263 116.922 15.5876L110.451 23.1144C110.447 23.1217 110.014 23.6593 109.205 23.8253L108.985 23.865L108.953 23.8577V24.1175L109.097 24.0959C110.101 23.9552 110.627 23.2949 110.645 23.2696L117.113 15.75C117.214 15.6453 117.243 15.4866 117.178 15.3423Z" fill="white"/>
<path d="M136.024 12.0589V24.2079C136.024 25.9218 134.617 27.3146 132.892 27.3146C131.61 27.3146 130.459 26.528 129.986 25.359C129.979 25.3445 129.972 25.3337 129.968 25.3193L129.957 25.294C129.954 25.2868 129.95 25.2796 129.947 25.2724L125.551 14.379V25.6873C125.551 26.5894 124.818 27.3182 123.909 27.3182C123.003 27.3182 122.267 26.5894 122.267 25.6873V13.5708C122.267 11.8532 123.674 10.4605 125.399 10.4605C126.767 10.4605 127.973 11.3445 128.384 12.629L132.74 23.4249V12.0589C132.74 11.1605 133.473 10.428 134.382 10.428C135.288 10.428 136.024 11.1605 136.024 12.0589ZM166.528 12.8672C164.889 11.229 162.901 10.428 160.522 10.428C158.18 10.428 156.156 11.229 154.517 12.8672C152.879 14.5053 152.045 16.4935 152.045 18.8713C152.045 21.2455 152.879 23.2373 154.517 24.8755C156.156 26.5136 158.177 27.3146 160.522 27.3146C162.897 27.3146 164.889 26.5136 166.528 24.8755C168.166 23.2373 169 21.2491 169 18.8713C169.004 16.4971 168.166 14.5053 166.528 12.8672ZM164.178 22.8079C163.19 23.7966 161.973 24.2909 160.522 24.2909C159.075 24.2909 157.855 23.7966 156.87 22.8079C155.881 21.8193 155.387 20.5708 155.387 19.0878C155.387 17.6048 155.881 16.3563 156.87 15.3677C157.855 14.379 159.075 13.8847 160.522 13.8847C161.97 13.8847 163.19 14.379 164.178 15.3677C165.167 16.3563 165.662 17.6048 165.662 19.0878C165.662 20.5672 165.167 21.8193 164.178 22.8079ZM149.179 23.6414C150.193 23.6414 151.016 24.4641 151.016 25.478C151.016 26.4919 150.193 27.3146 149.179 27.3146H140.821C139.807 27.3146 138.98 26.4919 138.98 25.478C138.98 24.4641 139.803 23.6414 140.821 23.6414H149.179ZM138.886 17.0347C137.872 17.0347 137.046 17.8574 137.046 18.8713C137.046 19.8852 137.869 20.7079 138.886 20.7079H149.183C150.197 20.7079 151.02 19.8852 151.02 18.8713C151.02 17.8574 150.197 17.0347 149.183 17.0347H138.886ZM140.821 10.428C139.807 10.428 138.98 11.2507 138.98 12.2646C138.98 13.2785 139.803 14.1012 140.821 14.1012H149.179C150.193 14.1012 151.016 13.2785 151.016 12.2646C151.016 11.2507 150.193 10.428 149.179 10.428H140.821Z" fill="white"/>
</svg>
