<svg width="101" height="46" fill="none" xmlns="http://www.w3.org/2000/svg"><path d="M9.932 19.436a9.173 9.173 0 00-5.053 1.506v-1.044H0V46h4.88v-9.916a9.237 9.237 0 008.167.963 9.167 9.167 0 003.535-2.296 9.058 9.058 0 002.119-3.624 9 9 0 00-1.42-8.029 9.139 9.139 0 00-3.235-2.694 9.225 9.225 0 00-4.112-.968h-.002zm0 13.566a4.56 4.56 0 01-2.517-.757 4.5 4.5 0 01-1.669-2.015 4.453 4.453 0 01-.257-2.595 4.478 4.478 0 011.24-2.299 4.543 4.543 0 012.32-1.228 4.57 4.57 0 012.618.256c.828.34 1.536.916 2.033 1.655a4.461 4.461 0 01-.564 5.669 4.564 4.564 0 01-3.204 1.314zm19.11-13.098h1.386v4.838h-1.391c-.906 0-1.776.357-2.416.992a3.37 3.37 0 00-1.001 2.395v9.188h-4.88v-9.188a8.152 8.152 0 01.63-3.15 8.224 8.224 0 011.8-2.67 8.31 8.31 0 012.695-1.785 8.37 8.37 0 013.178-.626v.006zm49.691-.386c-1.53 0-3.037.381-4.38 1.11a9.09 9.09 0 00-3.304 3.056 8.967 8.967 0 00-.601 8.66 9.057 9.057 0 002.85 3.476 9.198 9.198 0 008.677 1.186 9.122 9.122 0 003.695-2.58l-3.555-2.574a4.748 4.748 0 01-2 1.203 4.782 4.782 0 01-4.442-.904 4.7 4.7 0 01-1.36-1.886H87.69a8.954 8.954 0 00-.118-3.946 9.005 9.005 0 00-1.805-3.52 9.105 9.105 0 00-3.146-2.42 9.185 9.185 0 00-3.888-.86zm-4.418 7.32a4.71 4.71 0 011.744-2.17 4.775 4.775 0 015.348 0 4.71 4.71 0 011.744 2.17h-8.836zm-6.303 0v10.48h-4.877V27.012a3.313 3.313 0 00-.957-2.412 3.37 3.37 0 00-2.41-1.006 3.395 3.395 0 00-2.41 1.006 3.336 3.336 0 00-.958 2.412v10.306h-4.88V27.01a3.313 3.313 0 00-.958-2.412 3.37 3.37 0 00-2.41-1.006 3.395 3.395 0 00-2.41 1.006 3.335 3.335 0 00-.957 2.412v10.306h-4.881V19.904h4.88v2.1a7.197 7.197 0 012.456-1.83 7.257 7.257 0 013-.65c2.424 0 4.098 1.112 5.27 2.265a7.24 7.24 0 013.127-1.95 7.294 7.294 0 013.69-.163 7.254 7.254 0 013.291 1.664 7.16 7.16 0 012.032 3.058 9.55 9.55 0 01.362 2.438v.002zM32.07 19.913h4.882v4.847H32.07v-4.847zm0 17.404h4.88V25.77h-4.88v11.546zm65.44-13.942v-3.46h-3.492v3.46h-3.49v3.46h3.49v3.459h3.491v-3.46H101v-3.46h-3.49z" fill="#fff"/><path d="M85.365 8.98zm2.345-.173zm-.032-.076z" fill="#E10600"/><path d="M87.674 8.926l-3.718 4.286 3.718-4.286zm.037-.079a.148.148 0 00-.084-.156.147.147 0 00-.064-.013h-1.09a2.178 2.178 0 00-1.642.745l-1.72 1.986v2.258c.326-.042.627-.2.845-.445l3.718-4.286a.142.142 0 00.037-.089zm-.117.012l-3.72 4.284a1.254 1.254 0 01-.66.385v-2.09l1.694-1.955a2.07 2.07 0 011.565-.71h1.09a.047.047 0 01.042.029.046.046 0 01-.01.05v.007z" fill="#fff"/><path d="M87.604 8.809a.04.04 0 00-.04-.03h-1.091a2.088 2.088 0 00-1.565.712l-1.695 1.947-.103.117v2.002l.103-.023c.256-.057.487-.192.661-.386l3.72-4.29a.04.04 0 00.01-.05z" fill="#E10600"/><path d="M44.359 15.558l-3.26-9.62h2.08l2.371 7.397 2.358-7.393h2.095l-3.273 9.62-2.371-.004zM54.49 5.939a3.28 3.28 0 012.357.934c.614.609.959 1.434.959 2.295 0 .86-.345 1.686-.959 2.295a3.258 3.258 0 01-2.358.934h-1.704v3.161H50.87v-9.62h3.62zm0 4.686c.38-.014.74-.173 1.005-.445a1.451 1.451 0 000-2.024 1.478 1.478 0 00-1.005-.445h-1.705v2.914h1.705zm11.354 2.144a2.567 2.567 0 01-.874 2.005 3.107 3.107 0 01-2.15.784H58.7v-9.62h3.828a3.029 3.029 0 012.096.77 2.505 2.505 0 01.859 1.939 2.321 2.321 0 01-.916 1.926c.4.21.731.528.957.916.226.388.337.832.32 1.28zM60.616 7.71v2.118h1.913c.283 0 .555-.111.755-.31a1.055 1.055 0 000-1.498 1.07 1.07 0 00-.755-.31h-1.913zm2.204 6.075c.304 0 .595-.12.81-.332a1.13 1.13 0 000-1.605 1.15 1.15 0 00-.81-.332h-2.204v2.269h2.204zM79.989 9.25c.5.508.748 1.196.748 2.09v4.218H78.95V11.56c0-.92-.54-1.415-1.372-1.415-.931 0-1.526.562-1.526 1.704v3.71h-1.79v-6.87h1.79v.77c.43-.646 1.123-.963 2.066-.963a2.477 2.477 0 011.872.755zm3.125 2.46v3.852h-1.79V5.938h1.79v5.78M71.885 8.687v.81c-.54-.673-1.29-1.002-2.26-1.002a3.185 3.185 0 00-2.385 1.057 3.628 3.628 0 00-.985 2.57c-.023.956.33 1.883.985 2.585a3.146 3.146 0 002.385 1.044c.972 0 1.72-.33 2.26-1.004v.811h1.781v-6.87h-1.78zm-1.943 5.419c-.398 0-.786-.117-1.117-.336a1.996 1.996 0 01-.74-.894 1.974 1.974 0 01.436-2.17 2.027 2.027 0 012.19-.432c.367.15.681.406.902.734a1.978 1.978 0 01-.25 2.514 2.02 2.02 0 01-1.421.584zm-30.66-8.133a.568.568 0 00-.529-.343h-2.1c-.639 0-1.27.135-1.85.397a4.467 4.467 0 00-1.52 1.12l.438-.502a2.794 2.794 0 00.686-1.83V.579c0-.153-.061-.3-.17-.409a.586.586 0 00-.846.024l-3.448 3.962-.07.079-.068-.08L26.358.199a.565.565 0 00-.433-.192.586.586 0 00-.412.169.575.575 0 00-.171.409V4.82c0 .672.243 1.322.686 1.83l.435.501a4.466 4.466 0 00-1.515-1.121 4.505 4.505 0 00-1.847-.4H21a.587.587 0 00-.526.344.573.573 0 00.1.618l7.16 8.254c.467.527 1.111.87 1.813.963l.329.047.328-.047a2.955 2.955 0 001.814-.963l7.168-8.254a.558.558 0 00.095-.62zM33.82.287h.014a.344.344 0 01-.014 0zm-7.916 0h.013a.303.303 0 01-.006.002l-.007-.002z" fill="#fff"/><path d="M38.753 5.917h-2.1c-.602 0-1.197.13-1.743.378a4.18 4.18 0 00-1.426 1.061l-3.318 3.812v4.354a2.65 2.65 0 001.63-.86l7.171-8.261a.288.288 0 00-.214-.484zm-17.751 0H23.1a4.188 4.188 0 013.17 1.447l3.318 3.812v4.353a2.65 2.65 0 01-1.631-.859l-7.16-8.269a.288.288 0 01.204-.484zM34.116.572V4.81a2.5 2.5 0 01-.616 1.64l-3.335 3.837v-5.94l3.448-3.96a.287.287 0 01.502.184zm-8.479 0V4.81c0 .602.22 1.185.616 1.641l3.336 3.831V4.348l-3.45-3.96a.287.287 0 00-.502.184zm61.926 8.106h-1.09a2.186 2.186 0 00-1.642.745l-1.72 1.986v2.257c.326-.041.627-.2.845-.444l3.718-4.286a.148.148 0 00.038-.168.149.149 0 00-.149-.09z" fill="#E10600"/><path d="M85.036 12.226l-.503.56a.904.904 0 00-.02 1.193c.521.616 1.3 1.58 1.3 1.58h1.981l-2.758-3.333zm2.729-3.489a.214.214 0 00-.194-.13h-1.09a2.258 2.258 0 00-1.697.77l-1.738 1.997v.228l.144-.17 1.703-1.955a2.095 2.095 0 011.588-.722h1.09a.078.078 0 01.07.047.077.077 0 01-.016.084l-3.718 4.288c-.19.206-.44.348-.717.404l-.126.023h-.018v.148l.082-.011a1.43 1.43 0 00.89-.47l3.716-4.284a.215.215 0 00.031-.247z" fill="#fff"/></svg>