<svg width="204" height="34" viewBox="0 0 204 34" fill="none" xmlns="http://www.w3.org/2000/svg">
<path d="M136.097 18.9902C135.68 19.2379 135.302 19.5552 134.976 19.9289C135.302 19.5552 135.68 19.2379 136.097 18.9902Z" fill="#E10600"/>
<path d="M141.013 18.625C141.018 18.6554 141.018 18.6815 141.013 18.7119C141.018 18.6815 141.018 18.6511 141.013 18.625Z" fill="#E10600"/>
<path d="M140.944 18.4641C140.983 18.5076 141.005 18.5641 141.013 18.6206C141.005 18.5641 140.979 18.5119 140.944 18.4641Z" fill="#E10600"/>
<path d="M140.935 18.8773L133.146 27.9337L140.935 18.8773C140.983 18.8251 141.005 18.7686 141.013 18.7078C141.005 18.7686 140.979 18.8295 140.935 18.8773Z" fill="white"/>
<path d="M141.013 18.7123C141.018 18.6819 141.018 18.6515 141.013 18.6254C141.005 18.5689 140.979 18.5124 140.944 18.4689C140.887 18.3994 140.805 18.356 140.7 18.356H138.418C137.593 18.356 136.793 18.5819 136.097 18.9948C135.68 19.2425 135.302 19.5597 134.976 19.9335L131.373 24.1097V28.8813C132.537 28.7161 133.146 27.9383 133.146 27.9383L140.935 18.8818C140.979 18.8296 141.005 18.7688 141.013 18.7123ZM140.77 18.7384L132.972 27.8035C132.968 27.8122 132.494 28.4076 131.59 28.6205V24.1923L135.141 20.0769C135.963 19.1208 137.158 18.5732 138.418 18.5732H140.7C140.757 18.5732 140.779 18.608 140.787 18.6297C140.8 18.6471 140.809 18.6906 140.77 18.7384Z" fill="white"/>
<path d="M140.792 18.6293C140.783 18.6075 140.757 18.5728 140.705 18.5728H138.423C137.162 18.5728 135.967 19.1203 135.145 20.0764L131.594 24.1918L131.377 24.4395V28.6679L131.594 28.6201C132.498 28.4071 132.972 27.8117 132.976 27.8031L140.77 18.7379C140.809 18.6901 140.8 18.6466 140.792 18.6293Z" fill="#E10600"/>
<path d="M50.1683 32.897L43.3397 12.5591H47.6994L52.6677 28.1906L57.6098 12.5591H61.9999L55.1409 32.897H50.1683Z" fill="white"/>
<path d="M71.3974 12.5588C73.3447 12.5588 75.0008 13.2281 76.3396 14.5361C77.6784 15.8442 78.3434 17.4695 78.3434 19.3903C78.3434 21.3068 77.674 22.9364 76.3396 24.2445C75.0008 25.5525 73.3447 26.2218 71.3974 26.2218H67.8245V32.9055H63.8125V12.5675H71.3974V12.5588ZM71.3974 22.4671C73.11 22.4671 74.3619 21.1286 74.3619 19.386C74.3619 17.6129 73.11 16.3048 71.3974 16.3048H67.8245V22.4627H71.3974V22.4671Z" fill="white"/>
<path d="M95.191 26.9997C95.191 28.7119 94.5825 30.1373 93.3611 31.2411C92.1397 32.3449 90.6314 32.8968 88.8579 32.8968H80.2255V12.5588H88.2451C89.9881 12.5588 91.4399 13.1107 92.6352 14.1841C93.8262 15.2575 94.4391 16.6264 94.4391 18.2822C94.4391 19.9683 93.8001 21.3328 92.5222 22.3497C94.2869 23.3666 95.191 24.9354 95.191 26.9997ZM84.2331 16.3092V20.7853H88.2451C89.4969 20.7853 90.4227 19.8249 90.4227 18.5472C90.4227 17.2696 89.523 16.3092 88.2451 16.3092H84.2331ZM88.8536 29.1508C90.2184 29.1508 91.2095 28.1339 91.2095 26.7389C91.2095 25.3744 90.2228 24.3575 88.8536 24.3575H84.2331V29.1508H88.8536Z" fill="white"/>
<path d="M124.831 19.5643C125.879 20.6377 126.4 22.0935 126.4 23.9795V32.9013H122.653V24.4445C122.653 22.4976 121.519 21.4503 119.776 21.4503C117.829 21.4503 116.581 22.641 116.581 25.0529V32.8969H112.834V18.3692H116.581V19.9945C117.481 18.6299 118.937 17.9607 120.91 17.9607C122.506 17.965 123.814 18.4865 124.831 19.5643Z" fill="white"/>
<path d="M131.377 24.7616V32.8968H127.63V12.5588H131.377V24.7616Z" fill="white"/>
<path d="M107.848 18.3692V20.0814C106.714 18.656 105.145 17.9607 103.111 17.9607C101.163 17.9607 99.5072 18.7168 98.1119 20.1987C96.7471 21.6806 96.0472 23.4798 96.0472 25.6309C96.0472 27.782 96.7471 29.6116 98.1119 31.0935C99.5072 32.5753 101.163 33.3011 103.111 33.3011C105.145 33.3011 106.714 32.6058 107.848 31.1804V32.8926H111.595V18.3649H107.848V18.3692ZM103.78 29.8289C101.454 29.8289 99.568 27.9428 99.568 25.6178C99.568 23.2929 101.454 21.4069 103.78 21.4069C106.105 21.4069 107.992 23.2929 107.992 25.6178C107.988 27.9428 106.105 29.8289 103.78 29.8289Z" fill="white"/>
<path d="M39.532 12.633C39.3364 12.1854 38.9104 11.9073 38.4192 11.9073H34.0204C31.3124 11.9073 28.7435 13.0763 26.9614 15.11L27.8742 14.0497C28.8 12.9763 29.3129 11.6031 29.3129 10.182V1.20811C29.3129 0.543214 28.7696 0 28.1002 0C27.7481 0 27.4265 0.147755 27.1918 0.421535L19.9633 8.79572L19.8198 8.96521L19.6764 8.79572L12.4479 0.421535C12.2132 0.152101 11.8915 0 11.5394 0C10.8701 0 10.3267 0.543214 10.3267 1.20811V10.182C10.3267 11.5987 10.8353 12.972 11.7655 14.0497L12.6783 15.11C10.8961 13.0719 8.32726 11.9073 5.61929 11.9073H1.22046C0.733638 11.9073 0.307666 12.1854 0.10772 12.633C-0.0922266 13.0806 -0.0096442 13.5804 0.320702 13.9411L15.3254 31.3891C15.4645 31.5629 16.7598 33.0883 19.1244 33.4229L19.8111 33.5185H19.8155L20.5023 33.4229C22.8668 33.0926 24.1621 31.5629 24.3012 31.3891L39.319 13.928C39.6493 13.5847 39.7276 13.0806 39.532 12.633ZM28.1002 0.617084C28.1089 0.617084 28.1176 0.621434 28.1307 0.621434C28.0785 0.617088 28.0263 0.621434 27.9742 0.634471C28.0176 0.621434 28.0611 0.617084 28.1002 0.617084ZM11.5134 0.617084C11.5221 0.617084 11.5307 0.612748 11.5438 0.612748C11.5873 0.612748 11.6264 0.617093 11.6698 0.625784C11.6177 0.621438 11.5655 0.617084 11.5134 0.617084Z" fill="white"/>
<path d="M38.4191 12.52H34.0202C31.4688 12.52 29.0433 13.6282 27.3785 15.562L20.4282 23.619V32.8232C22.6711 32.5103 23.8447 31.0023 23.8447 31.0023L38.8668 13.5326C39.2232 13.1458 38.945 12.52 38.4191 12.52Z" fill="#E10600"/>
<path d="M1.22469 12.52H5.62351C8.17501 12.52 10.6004 13.6282 12.2652 15.562L19.2155 23.619V32.8232C16.9727 32.5103 15.7991 31.0023 15.7991 31.0023L0.776986 13.5326C0.420559 13.1458 0.698745 12.52 1.22469 12.52Z" fill="#E10600"/>
<path d="M28.7043 1.21682V10.1907C28.7043 11.464 28.2479 12.6939 27.4134 13.6586L20.424 21.759V9.1999L27.6524 0.825711C28.0176 0.404176 28.7043 0.660571 28.7043 1.21682Z" fill="#E10600"/>
<path d="M10.9395 1.21682V10.1907C10.9395 11.464 11.3959 12.6939 12.2304 13.6586L19.2198 21.759V9.1999L11.9913 0.825711C11.6262 0.404176 10.9395 0.660571 10.9395 1.21682Z" fill="#E10600"/>
<path d="M140.7 18.3523H138.418C137.097 18.3523 135.841 18.9259 134.976 19.9298L131.373 24.106V28.8776C132.537 28.7125 133.146 27.9346 133.146 27.9346L140.935 18.8781C141.118 18.6782 140.974 18.3523 140.7 18.3523Z" fill="#E10600"/>
<path d="M135.406 25.853L134.35 27.0394C133.715 27.7521 133.698 28.8255 134.311 29.5599C135.402 30.8636 137.036 32.9018 137.036 32.9018H141.187L135.406 25.853Z" fill="white"/>
<path d="M141.127 18.4778C141.053 18.3083 140.888 18.1997 140.701 18.1997H138.419C137.049 18.1997 135.754 18.7951 134.859 19.8294L131.216 24.049V24.5184L131.52 24.162L135.089 20.0249C135.924 19.0558 137.136 18.4996 138.419 18.4996H140.701C140.801 18.4996 140.84 18.5734 140.848 18.5952C140.857 18.6169 140.888 18.6995 140.818 18.7733L133.024 27.8385C133.02 27.8472 132.498 28.4947 131.525 28.6946L131.26 28.7424L131.221 28.7337V29.0466L131.394 29.0205C132.603 28.8511 133.237 28.0558 133.259 28.0254L141.048 18.9689C141.17 18.8429 141.205 18.6517 141.127 18.4778Z" fill="white"/>
<path d="M163.825 14.5236V29.1556C163.825 31.2198 162.13 32.8973 160.052 32.8973C158.509 32.8973 157.122 31.9499 156.553 30.5419C156.544 30.5245 156.536 30.5115 156.531 30.4941L156.518 30.4637C156.514 30.455 156.509 30.4463 156.505 30.4376L151.211 17.3179V30.9374C151.211 32.0238 150.328 32.9016 149.233 32.9016C148.142 32.9016 147.255 32.0238 147.255 30.9374V16.3444C147.255 14.2759 148.951 12.5984 151.028 12.5984C152.676 12.5984 154.127 13.6631 154.623 15.2102L159.869 28.2126V14.5236C159.869 13.4415 160.752 12.5593 161.847 12.5593C162.938 12.5593 163.825 13.4415 163.825 14.5236ZM200.563 15.497C198.589 13.5241 196.194 12.5593 193.33 12.5593C190.509 12.5593 188.071 13.5241 186.097 15.497C184.124 17.47 183.12 19.8645 183.12 22.7283C183.12 25.5878 184.124 27.9866 186.097 29.9596C188.071 31.9325 190.505 32.8973 193.33 32.8973C196.19 32.8973 198.589 31.9325 200.563 29.9596C202.536 27.9866 203.54 25.5921 203.54 22.7283C203.545 19.8688 202.536 17.47 200.563 15.497ZM197.733 27.4695C196.542 28.6602 195.077 29.2556 193.33 29.2556C191.587 29.2556 190.118 28.6602 188.931 27.4695C187.74 26.2788 187.145 24.7751 187.145 22.989C187.145 21.203 187.74 19.6993 188.931 18.5086C190.118 17.3179 191.587 16.7225 193.33 16.7225C195.073 16.7225 196.542 17.3179 197.733 18.5086C198.924 19.6993 199.52 21.203 199.52 22.989C199.52 24.7708 198.924 26.2788 197.733 27.4695ZM179.668 28.4733C180.89 28.4733 181.881 29.4642 181.881 30.6853C181.881 31.9065 180.89 32.8973 179.668 32.8973H169.602C168.38 32.8973 167.385 31.9065 167.385 30.6853C167.385 29.4642 168.376 28.4733 169.602 28.4733H179.668ZM167.272 20.5163C166.05 20.5163 165.055 21.5072 165.055 22.7283C165.055 23.9494 166.046 24.9403 167.272 24.9403H179.673C180.894 24.9403 181.885 23.9494 181.885 22.7283C181.885 21.5072 180.894 20.5163 179.673 20.5163H167.272ZM169.602 12.5593C168.38 12.5593 167.385 13.5501 167.385 14.7713C167.385 15.9924 168.376 16.9833 169.602 16.9833H179.668C180.89 16.9833 181.881 15.9924 181.881 14.7713C181.881 13.5501 180.89 12.5593 179.668 12.5593H169.602Z" fill="white"/>
</svg>
