<svg width="160" height="56" viewBox="0 0 160 56" fill="none" xmlns="http://www.w3.org/2000/svg">
<g clip-path="url(#clip0)">
<path d="M156.889 24.485V25.0612H157.172C157.455 25.0612 157.6 24.9638 157.6 24.7691C157.6 24.5824 157.455 24.4931 157.172 24.4931H156.889V24.485ZM156.348 26.4328V24.0061H157.204C157.479 24.0061 157.689 24.0548 157.842 24.1441C158.036 24.2902 158.133 24.485 158.133 24.7366C158.133 25.1018 157.964 25.3453 157.632 25.467C157.713 25.5969 157.915 25.9134 158.222 26.4328H157.6L157.075 25.532H156.889V26.4328H156.348ZM158.845 25.1992C158.845 24.7285 158.675 24.3308 158.352 23.998C158.02 23.6653 157.632 23.4948 157.18 23.4948C156.711 23.4948 156.323 23.6653 155.992 23.9899C155.669 24.3227 155.507 24.7285 155.507 25.1992C155.507 25.6699 155.669 26.0757 155.992 26.4085C156.315 26.7412 156.703 26.9035 157.172 26.9035C157.632 26.9035 158.028 26.7412 158.352 26.4085C158.675 26.0757 158.845 25.678 158.845 25.1992ZM158.643 23.714C159.047 24.1279 159.257 24.623 159.257 25.1992C159.257 25.7835 159.055 26.2786 158.643 26.6844C158.23 27.0983 157.737 27.3012 157.164 27.3012C156.59 27.3012 156.105 27.0983 155.693 26.6844C155.281 26.2705 155.079 25.7835 155.079 25.1992C155.079 24.623 155.281 24.1198 155.685 23.714C156.089 23.3082 156.582 23.0972 157.172 23.0972C157.746 23.1053 158.23 23.3082 158.643 23.714Z" fill="#00B74F"/>
<path d="M150.432 30.1582C149.972 30.4341 149.552 30.7831 149.196 31.197C149.56 30.7831 149.972 30.4341 150.432 30.1582Z" fill="#E10600"/>
<path d="M155.863 29.7524C155.871 29.7849 155.871 29.8174 155.863 29.8498C155.863 29.8174 155.863 29.7849 155.863 29.7524Z" fill="#E10600"/>
<path d="M155.782 29.5737C155.822 29.6224 155.847 29.6874 155.855 29.7523C155.847 29.6874 155.822 29.6224 155.782 29.5737Z" fill="#E10600"/>
<path d="M155.774 30.0363L147.176 40.0757L155.774 30.0363C155.822 29.9795 155.855 29.9145 155.863 29.8496C155.855 29.9145 155.822 29.9795 155.774 30.0363Z" fill="white"/>
<path d="M155.588 29.8742L146.99 39.9217C146.982 39.9298 146.457 40.5872 145.463 40.8226V35.9124L149.382 31.3513C150.287 30.2962 151.612 29.6875 153.002 29.6875H155.515C155.58 29.6875 155.604 29.7281 155.612 29.7524C155.62 29.7768 155.636 29.8255 155.588 29.8742ZM155.863 29.8498C155.871 29.8174 155.863 29.7849 155.863 29.7524C155.855 29.6875 155.822 29.6307 155.782 29.582C155.717 29.509 155.628 29.4521 155.515 29.4521H153.002C152.089 29.4521 151.208 29.7037 150.44 30.1582C149.98 30.4342 149.56 30.7832 149.204 31.1971L145.228 35.8313V41.1229C146.513 40.9443 147.184 40.0759 147.184 40.0759L155.782 30.0365C155.822 29.9797 155.855 29.9148 155.863 29.8498Z" fill="white"/>
<path d="M155.612 29.7524C155.604 29.7281 155.572 29.6875 155.515 29.6875H153.002C151.612 29.6875 150.295 30.2962 149.382 31.3513L145.463 35.9124L145.22 36.1884V40.8713L145.463 40.8226C146.457 40.5872 146.982 39.9298 146.99 39.9217L155.588 29.8742C155.636 29.8255 155.62 29.7768 155.612 29.7524Z" fill="#E10600"/>
<path d="M55.6445 45.5704L48.1132 23.0325H52.9212L58.4 40.3519L63.8546 23.0325H68.695L61.1233 45.5704H55.6445Z" fill="#00B74F"/>
<path d="M79.0627 34.0133C80.9536 34.0133 82.3354 32.5281 82.3354 30.5965C82.3354 28.6325 80.9536 27.1797 79.0627 27.1797H75.1192V34.0052H79.0627V34.0133ZM79.0627 23.0325C81.2122 23.0325 83.0384 23.771 84.5091 25.2238C85.9799 26.6684 86.7233 28.4783 86.7233 30.5965C86.7233 32.7229 85.9879 34.5246 84.5091 35.9693C83.0304 37.422 81.2041 38.1606 79.0627 38.1606H75.1192V45.5623H70.699V23.0325H79.0627Z" fill="#00B74F"/>
<path d="M98.3192 41.4151C99.8223 41.4151 100.913 40.287 100.913 38.7449C100.913 37.2354 99.8223 36.1073 98.3192 36.1073H93.2203V41.4232H98.3192V41.4151ZM93.2203 27.1878V32.1467H97.6405C99.0223 32.1467 100.049 31.0835 100.049 29.6713C100.049 28.2591 99.0546 27.1959 97.6405 27.1959H93.2203V27.1878ZM105.309 39.0371C105.309 40.9362 104.638 42.5188 103.289 43.7362C101.939 44.9617 100.275 45.5704 98.3192 45.5704H88.8V23.0325H97.6485C99.5718 23.0325 101.172 23.6412 102.489 24.8342C103.806 26.0273 104.477 27.5368 104.477 29.371C104.477 31.2377 103.774 32.7473 102.36 33.8754C104.315 35.0116 105.309 36.7484 105.309 39.0371Z" fill="#00B74F"/>
<path d="M138.004 30.7913C139.16 31.9843 139.733 33.5913 139.733 35.6852V45.5704H135.596V36.2046C135.596 34.0458 134.343 32.8852 132.42 32.8852C130.271 32.8852 128.897 34.2081 128.897 36.8783V45.5704H124.76V29.4684H128.897V31.2701C129.891 29.7606 131.491 29.0139 133.673 29.0139C135.442 29.022 136.889 29.5983 138.004 30.7913Z" fill="#00B74F"/>
<path d="M145.228 36.5536V45.5704H141.099V23.0325H145.228V36.5536Z" fill="#00B74F"/>
<path d="M114.788 42.1699C112.218 42.1699 110.141 40.0841 110.141 37.5032C110.141 34.9223 112.218 32.8365 114.788 32.8365C117.35 32.8365 119.434 34.9223 119.434 37.5032C119.426 40.0759 117.35 42.1699 114.788 42.1699ZM119.273 29.4684V31.3675C118.02 29.793 116.291 29.0139 114.044 29.0139C111.895 29.0139 110.069 29.8499 108.533 31.4893C107.03 33.1287 106.255 35.1252 106.255 37.5113C106.255 39.8974 107.022 41.9183 108.533 43.5658C110.069 45.2052 111.903 46.0168 114.044 46.0168C116.291 46.0168 118.02 45.2458 119.273 43.6632V45.5623H123.41V29.4684H119.273Z" fill="#00B74F"/>
<path d="M13.002 9.7952C13.0101 9.7952 13.0263 9.7952 13.0344 9.7952C13.0829 9.7952 13.1233 9.80332 13.1717 9.81144C13.1152 9.7952 13.0586 9.7952 13.002 9.7952ZM31.3051 9.7952C31.3132 9.7952 31.3293 9.7952 31.3374 9.7952C31.2808 9.7952 31.2243 9.7952 31.1677 9.81144C31.2081 9.80332 31.2566 9.7952 31.3051 9.7952ZM43.9111 23.1135C43.6929 22.6184 43.2243 22.31 42.6828 22.31H37.8263C34.8364 22.31 32.0081 23.6004 30.0364 25.8648L31.0465 24.688C32.0647 23.4949 32.6303 21.9772 32.6303 20.4027V10.4607C32.6303 9.72216 32.0323 9.12158 31.297 9.12158C30.9091 9.12158 30.5536 9.2839 30.295 9.58419L22.3273 18.8688L22.1657 19.0555L22.0041 18.8688L14.0364 9.58419C13.7778 9.2839 13.4222 9.12158 13.0344 9.12158C12.299 9.12158 11.701 9.72216 11.701 10.4607V20.4027C11.701 21.9772 12.2667 23.4949 13.2849 24.688L14.295 25.8648C12.3313 23.6085 9.49497 22.31 6.51316 22.31H1.65659C1.11517 22.31 0.646488 22.6184 0.428307 23.1135C0.210125 23.6085 0.299013 24.1685 0.662649 24.5662L17.2121 43.8984C17.3657 44.0932 18.796 45.7813 21.4061 46.1546L22.1657 46.2601H22.1738L22.9334 46.1546C25.5435 45.7894 26.9738 44.0932 27.1273 43.8984L43.693 24.55C44.0404 24.1685 44.1293 23.6085 43.9111 23.1135Z" fill="white"/>
<path d="M42.6829 22.9836H37.8263C35.0142 22.9836 32.3394 24.2173 30.497 26.3518L22.8283 35.2793V45.481C25.301 45.132 26.594 43.4683 26.594 43.4683L43.1677 24.1118C43.5717 23.6816 43.2647 22.9836 42.6829 22.9836Z" fill="#E10600"/>
<path d="M1.65658 22.9836H6.51314C9.32526 22.9836 12 24.2173 13.8424 26.3518L21.5111 35.2793V45.481C19.0384 45.132 17.7455 43.4683 17.7455 43.4683L1.15557 24.1118C0.767688 23.6816 1.07476 22.9836 1.65658 22.9836Z" fill="#E10600"/>
<path d="M31.9677 10.4609V20.4029C31.9677 21.8151 31.4667 23.1786 30.5455 24.2499L22.8364 33.2261V19.3073L30.804 10.0227C31.2081 9.56004 31.9677 9.8441 31.9677 10.4609Z" fill="#E10600"/>
<path d="M12.3717 10.4609V20.4029C12.3717 21.8151 12.8727 23.1786 13.7939 24.2499L21.503 33.2261V19.3073L13.5353 10.0227C13.1313 9.56004 12.3717 9.8441 12.3717 10.4609Z" fill="#E10600"/>
<path d="M155.515 29.4521H152.994C151.539 29.4521 150.15 30.0933 149.196 31.1971L145.22 35.8313V41.1229C146.505 40.9443 147.176 40.0759 147.176 40.0759L155.774 30.0365C155.976 29.8093 155.814 29.4521 155.515 29.4521Z" fill="#E10600"/>
<path d="M149.673 37.7627L148.509 39.0775C147.806 39.8728 147.79 41.0578 148.469 41.8694C149.673 43.314 151.475 45.5702 151.475 45.5702H156.057L149.673 37.7627Z" fill="#00B74F"/>
</g>
<defs>
<clipPath id="clip0">
<rect width="160" height="37.3333" fill="white" transform="translate(0 9)"/>
</clipPath>
</defs>
</svg>
