<svg width="52" height="52" fill="none" xmlns="http://www.w3.org/2000/svg"><path d="M27.304 0C13.877 0 2.93 10.947 2.93 24.375c0 .77 0 1.454.086 2.224l1.71-.172c-.085-.683-.085-1.368-.085-2.052 0-12.487 10.177-22.664 22.664-22.664 12.487 0 22.665 10.177 22.665 22.664 0 12.23-9.665 22.237-21.81 22.664l1.882-1.881-1.197-1.198-4.02 4.02 4.02 4.02 1.197-1.197-2.052-2.053c13.513-.428 24.118-11.632 23.69-25.059C51.252 10.52 40.475 0 27.304 0z" fill="url(#paint0_linear)"/><path d="M43.127 10.263h-30.79v15.395h30.79V10.263zm-1.711 13.684H14.048V11.974h27.368v11.973z" fill="url(#paint1_linear)"/><path d="M27.732 21.381a3.43 3.43 0 003.42-3.42 3.43 3.43 0 00-3.42-3.422 3.431 3.431 0 00-3.421 3.421 3.431 3.431 0 003.42 3.421zm0-5.131c.94 0 1.71.77 1.71 1.71 0 .941-.77 1.711-1.71 1.711-.941 0-1.71-.77-1.71-1.71 0-.941.769-1.711 1.71-1.711z" fill="url(#paint2_linear)"/><path d="M17.469 15.395h1.71v-1.71h-3.42v3.42h1.71v-1.71z" fill="url(#paint3_linear)"/><path d="M19.18 20.526h-1.711v-1.71h-1.71v3.42h3.42v-1.71z" fill="url(#paint4_linear)"/><path d="M39.706 18.816h-1.711v1.71h-1.71v1.71h3.42v-3.42z" fill="url(#paint5_linear)"/><path d="M37.995 17.105h1.71v-3.42h-3.42v1.71h1.71v1.71z" fill="url(#paint6_linear)"/><path d="M20.034 17.105H22.6v1.71h-2.566v-1.71z" fill="url(#paint7_linear)"/><path d="M32.863 17.105h2.566v1.71h-2.566v-1.71z" fill="url(#paint8_linear)"/><path d="M5.495 36.776h1.71v2.566h-1.71v-2.566z" fill="url(#paint9_linear)"/><path d="M43.127 34.98c0-1.71-1.454-3.164-3.165-3.164-.256 0-.599 0-.855.085l-10.349 2.994c-.085 0-.256.085-.342 0l-2.395-.428c1.625-.94 2.224-2.993 1.369-4.618a3.357 3.357 0 00-2.994-1.797H13.62c-.428 0-.855.086-1.283.343l-1.71 1.112v-1.283H.363v14.54h10.264v-2.139l8.467 3.507c.513.256 1.197.256 1.71.085l20.014-6.243c1.368-.342 2.309-1.54 2.309-2.994zm-34.21 6.073H2.073V29.934h3.421v5.132h1.71v-5.132h1.711v11.119zm11.46 1.539a.73.73 0 01-.599 0l-9.151-3.849v-7.27l2.565-1.453c.086-.086.257-.086.428-.086h10.69c.942 0 1.711.77 1.711 1.71 0 .942-.77 1.711-1.71 1.711h-5.987v.856l-.17.855 9.835 1.625c.342.085.77 0 1.111-.086l10.35-2.993c.769-.257 1.538.256 1.795 1.026.257.77-.17 1.54-.94 1.796l-19.928 6.158z" fill="url(#paint10_linear)"/><defs><linearGradient id="paint1_linear" x1="13.217" y1="17.961" x2="43.127" y2="17.961" gradientUnits="userSpaceOnUse"><stop stop-color="#015AAD"/><stop offset="1" stop-color="#00B74F"/></linearGradient><linearGradient id="paint5_linear" x1="36.382" y1="20.526" x2="39.706" y2="20.526" gradientUnits="userSpaceOnUse"><stop stop-color="#015AAD"/><stop offset="1" stop-color="#00B74F"/></linearGradient><linearGradient id="paint2_linear" x1="24.506" y1="17.96" x2="31.153" y2="17.96" gradientUnits="userSpaceOnUse"><stop stop-color="#015AAD"/><stop offset="1" stop-color="#00B74F"/></linearGradient><linearGradient id="paint3_linear" x1="15.856" y1="15.395" x2="19.179" y2="15.395" gradientUnits="userSpaceOnUse"><stop stop-color="#015AAD"/><stop offset="1" stop-color="#00B74F"/></linearGradient><linearGradient id="paint4_linear" x1="15.856" y1="20.526" x2="19.179" y2="20.526" gradientUnits="userSpaceOnUse"><stop stop-color="#015AAD"/><stop offset="1" stop-color="#00B74F"/></linearGradient><linearGradient id="paint0_linear" x1="4.322" y1="26" x2="51.692" y2="26" gradientUnits="userSpaceOnUse"><stop stop-color="#015AAD"/><stop offset="1" stop-color="#00B74F"/></linearGradient><linearGradient id="paint6_linear" x1="36.382" y1="15.395" x2="39.706" y2="15.395" gradientUnits="userSpaceOnUse"><stop stop-color="#015AAD"/><stop offset="1" stop-color="#00B74F"/></linearGradient><linearGradient id="paint7_linear" x1="20.108" y1="17.96" x2="22.6" y2="17.96" gradientUnits="userSpaceOnUse"><stop stop-color="#015AAD"/><stop offset="1" stop-color="#00B74F"/></linearGradient><linearGradient id="paint8_linear" x1="32.937" y1="17.96" x2="35.429" y2="17.96" gradientUnits="userSpaceOnUse"><stop stop-color="#015AAD"/><stop offset="1" stop-color="#00B74F"/></linearGradient><linearGradient id="paint9_linear" x1="5.544" y1="38.059" x2="7.206" y2="38.059" gradientUnits="userSpaceOnUse"><stop stop-color="#015AAD"/><stop offset="1" stop-color="#00B74F"/></linearGradient><linearGradient id="paint10_linear" x1="1.585" y1="36.194" x2="43.127" y2="36.194" gradientUnits="userSpaceOnUse"><stop stop-color="#015AAD"/><stop offset="1" stop-color="#00B74F"/></linearGradient></defs></svg>