<svg width="203" height="84" fill="none" xmlns="http://www.w3.org/2000/svg"><g clip-path="url(#clip0)" fill="#fff"><path fill-rule="evenodd" clip-rule="evenodd" d="M75.543 33.073a.723.723 0 01-.103.143 6.389 6.389 0 00-1.319 1.92c-.164.061-.34.122-.514.184-.176.061-.35.122-.516.184-1.03.408-2.06.776-3.09 1.144a79.973 79.973 0 00-3.749 1.225c-.433.15-.87.303-1.307.456a141.46 141.46 0 01-4.09 1.383c-.206.081-.33.163-.412.286a.829.829 0 000 .45l.247.735c.865 2.696 1.112 5.31.7 7.885a22.06 22.06 0 01-2.554 7.803c-3.585 6.619-8.529 12.216-14.792 16.833-5.026 3.8-10.753 6.619-17.222 8.539-1.607.49-3.255.858-4.903 1.144-2.925.49-5.933.695-9.105.572a21.49 21.49 0 01-5.48-.98 12.264 12.264 0 01-3.255-1.471C2.266 80.364 1.07 78.975.577 77.38c-.165-.613-.289-1.266-.289-1.92.042-1.144.289-2.247.783-3.269a21.89 21.89 0 014.285-6.169c3.914-4.085 8.405-7.6 13.597-10.54a179.107 179.107 0 0117.799-8.703 332.93 332.93 0 0117.551-6.946c.577-.204.907-.367.907-.449v-.245c-.082-.204-.288-.49-.66-.858-.658-.817-1.441-1.47-2.389-2.043a19.415 19.415 0 00-4.285-2.002 60.277 60.277 0 00-9.105-2.206l-.052-.01c-.183-.037-.337-.068-.525-.031-.948.082-1.937.082-2.967 0-.577-.04-1.153-.04-1.689-.04-.412 0-.865.04-1.236.122l-.453.081c-.371.041-.7.082-1.03.123-.206.04-.33.082-.412.204a1.42 1.42 0 00-.165.368l-.083.123-.103.285c-.132.367-.27.748-.432 1.104-.577 1.266-1.071 2.614-1.566 3.963a62.923 62.923 0 00-2.596 8.865 12.997 12.997 0 00-.247 3.596c0 .408-.123.654-.453.694a.85.85 0 01-.453 0c-.618-.081-1.113-.408-1.525-.94a5.834 5.834 0 01-1.03-1.92 4.611 4.611 0 01-.247-1.021c-.165-1.062-.206-2.125-.041-3.146a48.145 48.145 0 013.543-12.543 130.051 130.051 0 002.555-6.169c.097-.265.209-.516.318-.762.075-.17.15-.337.217-.505a51.872 51.872 0 014.203-8.58 16.695 16.695 0 012.184-2.655 5.81 5.81 0 011.565-1.185 1.93 1.93 0 01.948-.367c.123-.041.288-.041.453-.041 1.03-.041 1.772.163 2.266.613.495.449.783.898.907 1.266.123.368.123.776.04 1.226-.04.327-.205.613-.411.899-.577.899-1.319 1.675-2.101 2.37a1.254 1.254 0 01-.289.204 1.15 1.15 0 00-.112.044.308.308 0 01-.135.037h-.247c-.165-.081-.289-.081-.371-.081-.02.02-.041.03-.062.04a.216.216 0 00-.062.041c-.123.041-.247.164-.33.286-1.647 2.738-3.007 5.638-4.12 8.662v.245l.099.025c.118.031.216.057.313.057.124.04.248.04.371 0l.165-.041c3.914-.286 7.746-.736 11.578-1.308l.989-.163c4.985-.858 9.64-2.288 13.967-4.372 2.513-1.184 4.573-2.778 6.098-4.82.618-.818 1.071-1.717 1.277-2.738.165-.776.165-1.553-.082-2.247-.33-.98-.948-1.839-1.896-2.697-.947-.898-2.06-1.593-3.296-2.124a33.538 33.538 0 00-9.765-2.737 59.764 59.764 0 00-11.412-.49 67.327 67.327 0 00-7.705.816l-1.854.368c-4.285.94-8.323 2.329-12.072 4.208-6.057 3.064-10.96 7.232-14.586 12.543-1.4 1.798-2.224 3.881-2.472 6.21l.042.082c-.042.45-.042.899.04 1.389l.042.163c.124.409.37.695.783.9.247.122.412.285.453.408.082.163.041.367-.124.53a1.112 1.112 0 01-.741.41c-.33.081-.7 0-1.071-.164-.66-.327-1.072-.776-1.319-1.39-.206-.653-.288-1.306-.206-1.96.206-2.125.783-4.086 1.73-5.883 1.731-3.146 3.997-5.924 6.84-8.376 5.274-4.657 11.578-8.049 18.994-10.132 2.225-.654 4.532-1.144 6.88-1.553a70.106 70.106 0 016.716-.817c5.192-.45 10.59-.122 16.069.899 2.348.45 4.656 1.185 6.922 2.125a19.063 19.063 0 013.337 1.838c2.102 1.47 3.502 3.187 4.12 5.189.248.776.412 1.634.412 2.533a8.1 8.1 0 01-1.318 4.494c-1.195 1.961-2.76 3.595-4.78 4.944-3.172 2.042-6.756 3.595-10.63 4.698a71.083 71.083 0 01-8.363 1.961l-.33.04c-.165 0-.37.083-.494.164.123.082.247.123.37.164.083.04.206.082.33.122.027-.026.07-.018.12-.01.028.005.057.01.086.01 1.648.368 3.255.817 4.862 1.43 2.925 1.063 5.232 2.82 7.004 5.189l.112.134c.14.17.234.283.3.316.041.04.165.04.247.04.098 0 .222-.05.371-.113l.124-.05c.866-.286 1.73-.572 2.637-.858h.001c2.019-.695 4.037-1.39 6.014-2.084a61.263 61.263 0 016.922-1.838c-.041.04-.072.092-.103.143zM54.798 53.848c1.277-2.41 1.936-5.025 2.06-7.844.041-1.349-.124-2.697-.412-4.086l-.041-.123c-.083-.204-.206-.326-.412-.285l-.165.081c-.307.112-.608.218-.904.323-.46.162-.911.32-1.362.494a4.42 4.42 0 00-.783.286c-9.93 3.514-19.406 7.64-28.388 12.42a76.173 76.173 0 00-7.91 4.74 48.27 48.27 0 00-9.353 8.13 20.465 20.465 0 00-3.296 5.107 6.142 6.142 0 00-.618 2.41c-.042.491.04.94.164 1.349.33 1.062 1.195 1.88 2.596 2.492 1.03.409 2.101.695 3.173.858 2.348.286 4.45.286 6.262 0a38.8 38.8 0 002.143-.327 55.688 55.688 0 0014.667-4.576c7.376-3.636 13.473-8.498 18.253-14.544a38.877 38.877 0 004.326-6.905z"/><path d="M166.784 17.609a5.88 5.88 0 00.618-.45c.824-.694 1.607-1.552 1.731-2.002.164-.245.659-.572 1.153-.694.453-.204 1.36.817 1.195 1.144-.371.94-4.161 4.167-6.098 3.146-.041-.082-.123-.123-.165-.205-.123-.163.165-.572.618-.817.33-.163.742-.245.948-.122zm-55.045 38.118c.329-.776 2.801-6.822 3.337-8.252.371-.98.906-2.084 1.318-3.269 3.008-8.049 7.746-19.693 11.702-20.714 4.985-1.307 6.674 3.922 5.232 7.885-1.03 3.923-4.12 8.294-6.098 8.54-2.224.326-4.079-.777-5.232-2.003-2.225 4.74-6.222 14.872-7.828 19.08-.165.368-.289.695-.454 1.062-.164 1.308-.576 2.656-1.236 3.187-1.524 1.185-3.172-3.023-3.09-6.7 0-3.76 11.578-34.32 12.237-35.463.288-.695 3.585.49 3.337.98a1558.967 1558.967 0 00-13.225 35.667zm18.458-30.029c-2.019.49-4.697 4.944-7.416 10.541.37.531 1.318 1.594 2.637 1.43 1.483-.204 3.584-4.371 4.532-8.048.288-1.104.577-2.084.577-2.942-.042-.776-.165-1.348-.371-1.512-.247-.368.247.45.041.531zM151.498.204c.206-.368.989-.245 1.689.245.742.49 1.154 1.226.948 1.594a1186.255 1186.255 0 00-13.72 26.964c3.79-3.472 7.828-5.72 8.817-1.143.165.612.783 5.188.783 5.188.371.327 2.637-.53 8.652-7.027.289-.327.659-.98 1.319-.49.659.572.741 1.062.453 1.389-6.757 7.272-10.136 9.356-12.072 7.844-2.019-1.634-1.813-4.984-2.349-7.436-.494-1.756-10.836 12.339-10.836 12.42-.206.328-.906.205-1.565-.285-.742-.49-1.154-1.226-.989-1.594 6.015-12.583 12.319-25.126 18.87-37.669z"/><path d="M171.192 23.492c.371.695.206 1.103-.412 1.021-.618-.081-1.442-.653-1.812-1.266-1.649-1.185-5.192.817-6.469 2.002-2.555 2.41-3.873 5.107-4.326 8.457 2.513-.98 8.611-9.193 8.611-9.193.288-.326.989-.163 1.73.409.577.531.948 1.103.783 1.512-.123.367-.824 2.288-.165 4.208.454 1.634 9.518-6.986 9.683-7.027.288-.327.865-.736 1.524-.205.659.572.659 1.144.371 1.471-4.615 4.617-7.293 7.354-9.229 8.54-3.296 2.042-6.016 1.306-6.304-2.166-2.472 2.696-4.985 5.148-6.716 4.616-.618-.163-1.112-.53-1.607-.898-.865-.817-1.277-1.798-1.236-2.86-.041-.858.165-1.798.536-2.779.741-2.083 2.266-4.453 4.079-6.169 3.008-2.9 9.27-3.636 10.959.327zm-80.878 32.93c.082-.245.536-.204.989.04.453.246.741.655.659.9a818.556 818.556 0 00-6.015 16.832c1.936-2.288 4.078-3.88 4.985-1.184.124.367.783 3.023.783 3.023.206.163 1.483-.49 4.49-4.698.124-.205.29-.613.742-.368.412.286.495.572.371.776-3.378 4.74-5.191 6.17-6.386 5.393-1.277-.858-1.4-2.86-1.854-4.29-.412-1.021-5.398 7.967-5.398 8.008-.082.204-.494.163-.906-.082-.453-.245-.742-.654-.66-.899a885.99 885.99 0 018.2-23.451z"/><path d="M97.318 68.883c.124-.163.618-.081 1.03.205.412.286.618.694.454.899a2.047 2.047 0 00-.289.326c-.742.98-1.154 2.41-1.36 3.8-.082 1.144-.04 2.165.248 2.533.247.04.494-.04.824-.163.37-.205.783-.572 1.112-1.063.495-.612.865-1.511 1.195-2.574.165-.612.247-1.225.33-1.838-.907-.45-1.648-1.062-2.143-1.757-.494-.654-.824-1.39-.865-1.92-.041-.613.124-1.062.618-1.267.37-.122.742-.122 1.112-.04.618.163 1.195.571 1.648 1.102.371.41.577.858.783 1.39.206.53.33 1.144.371 1.797.989-.04 2.431-.163 3.749-1.307.206-.163.371-.368.783-.082.371.327.412.613.206.776-1.771 1.512-3.255 1.962-4.697 1.798a6.92 6.92 0 01-.371 2.247c-.288 1.063-.7 2.002-1.236 2.697-.412.53-.824.94-1.236 1.184-.535.286-1.07.368-1.689.205a2.793 2.793 0 01-.989-.49c-.123-.082-.206-.123-.33-.205-.906-.817-1.194-2.328-1.07-3.881.164-1.47.659-3.023 1.442-4.045.123-.04.247-.204.37-.327zm.248-3.023c-.042.163-.33.123-.618-.04-.248-.164-.412-.45-.33-.532.124-.286 1.648-1.961 2.843-2.86.33-.245.618-.45.865-.531.412-.204.824-.163 1.236.204a.738.738 0 01.247.572c.083 1.43.206 2.125.206 2.125.041.163-.165.204-.412.081-.288-.122-.535-.367-.535-.53 0 0-.124-.49-.165-1.594-.165.122-.371.245-.536.368-1.195.858-2.678 2.492-2.802 2.737zm3.254 4.127a6.312 6.312 0 00-.412-1.88c-.123-.368-.288-.695-.412-.858h.042c-.042-.04-.165 0-.289.082-.247.04-.33.327-.288.694.041.368.206.817.535 1.226.206.327.495.572.824.736zm-28.305-1.595c.082 0 .206 0 .33.123.164.082.206.245.164.286 0 .04-.04.04-.082.04-.7.287-1.73-.98-1.813-1.347 0-.082.33-.409.494-.327.165.082.289.204.289.327.041.163.247.49.453.735.083.04.124.123.165.163zm-3.791-8.947c.082-.122.37-.122.66.082.288.163.453.45.37.572 0 .04-1.524 3.187-3.049 6.823l2.102-.368c.206-.04.576.123.741.327.247.245.247.45.041.49-1.112.205-2.266.409-3.378.613-.412.98-.824 2.002-1.195 3.023v.041c.041.123-.041.164-.082.205-1.154 3.064-1.73 4.78-1.319 5.27.7.817 5.48-4.78 5.48-4.821.082-.123.247-.204.535 0 .289.204.124.368.042.49-.041.041-5.15 7.436-7.046 5.312-.577-.654.124-3.555 1.319-6.823-.041 0 .123-.327.123-.327-.37-2.084-7.622-.245-7.622-.245-.206.04-.577-.123-.783-.327-.206-.204-.247-.45-.041-.49l9.641-2.084c1.69-4.045 3.42-7.722 3.461-7.763zm-4.409 10.337c.207-.49.371-.98.577-1.471l-3.584.613c.906.163 2.43.408 3.008.858z"/><path d="M70.249 69.414c.082-.123.412-.082.659.082.288.204.412.45.37.613-1.647 2.819-1.483 4.453-1.235 4.576.412.204 2.307-1.594 3.296-4.372.041-.041.041-.082.082-.123.083-.122.412-.122.66.082.288.163.453.45.37.572 0 0-.04.082-.165.245-.288.531-1.812 3.84.124 2.41.989-.735 2.101-2.001 2.637-3.064.082-.163.165-.449.453-.245.289.164.165.368.083.49-.577 1.104-1.401 2.615-2.431 3.35-.907.654-2.184.695-2.596-.449-2.307 2.901-4.697 2.942-3.832-.694.247-1.226.948-2.574 1.525-3.473z"/><path d="M74.08 70.558s.7-.082.33-1.308c-.041-.122.165-.245.453-.285.288-.041.577.04.618.163.536 1.716-1.236 1.92-1.236 1.92-.247.041-.536-.04-.577-.163-.082-.164.124-.286.412-.327zm-.7-38.895c.247-.327 1.113-.204 1.895.204.783.49 1.154 1.144.99 1.553-4.904 7.231-4.492 11.521-3.833 11.807 1.113.49 6.51-4.085 9.6-11.235.083-.123.124-.204.206-.327.248-.327 1.113-.286 1.855.245.741.45 1.194 1.144.947 1.471 0 0-.124.245-.453.572-.824 1.307-5.356 9.805.123 6.17 2.843-1.921 6.016-5.149 7.705-7.886.247-.409.453-1.144 1.277-.654.742.45.413.94.165 1.267-1.73 2.819-4.161 6.66-7.086 8.58-2.555 1.716-6.14 1.797-7.21-1.103-6.675 7.435-13.268 7.64-10.672-1.757.783-3.024 2.802-6.537 4.491-8.907z"/><path d="M106.753 1.757c.206-.327.989-.286 1.69.245.7.45 1.153 1.184.947 1.511 0 .082-1.936 3.637-6.468 12.83a1482.545 1482.545 0 0119.447-3.065c.535-.082 1.442.368 1.936.94.577.653.577 1.225.042 1.266-7.582 1.103-15.163 2.329-22.744 3.595a309.01 309.01 0 00-3.502 7.559v.082c.041.286-.082.449-.247.49-3.379 7.722-5.068 12.134-3.997 13.36 1.73 2.124 14.915-11.808 14.957-11.849.247-.245.7-.49 1.4.041.701.532.33.94.042 1.226-.165.04-14.339 18.549-19.035 12.992-1.484-1.757.7-9.07 4.202-17.323-.082 0 .33-.858.33-.858-.783-5.352-14.091-2.247-14.091-2.206-.536.082-1.484-.286-1.978-.94-.577-.53-.618-1.103-.082-1.225 6.55-1.226 13.102-2.41 19.694-3.514 4.779-10.255 7.375-15.076 7.457-15.157zM96.371 23.41c.577-1.266 1.112-2.492 1.689-3.759-3.173.409-6.345.858-9.559 1.308 5.274-.245 6.386 1.185 7.87 2.451z"/><path d="M84.175 34.4s1.854-.163.948-3.309c-.124-.286.453-.613 1.153-.735.783-.082 1.442.163 1.566.45 1.277 4.412-3.296 4.82-3.379 4.861-.7.082-1.36-.123-1.524-.45-.041-.367.494-.735 1.236-.816zm-3.997-4.984c.124-.204.413-.286.66-.49.783-.613 1.648-1.512 1.854-1.92.082-.287.618-.654 1.153-.736.536-.082 1.401.94 1.319 1.226-.412 1.021-4.491 4.126-6.592 3.023-.041-.082-.124-.122-.206-.204-.124-.164.165-.531.741-.777.412-.204.824-.245 1.072-.122zm122.286 34.483c-19.117-1.062-32.013.204-40.171 1.757-1.895.286-3.502.612-4.697.94 1.978-4.863 3.626-9.275 3.626-9.316l.041-.04c.247-.573.494-1.186.741-1.758.083-.245-.164-.612-.576-.898-.454-.286-.783-.368-.948-.123.165.531-3.832 8.008-6.839 7.844-.289-.122-.33-1.062-.289-1.225.371-1.39 1.195-3.146 2.39-4.903.123-.245-.083-.613-.495-.94-.412-.286-.865-.408-.988-.163-.989 1.512-1.772 3.023-2.184 4.33-1.277 1.349-4.573 4.78-4.862 4.004-.453-1.143-.082-2.287-.041-2.532.082-.246-.124-.572-.494-.858-.454-.327-.866-.368-1.031-.205 0 0-3.213 5.066-4.655 5.72.165-2.002.824-3.636 2.225-5.189.659-.735 2.678-2.043 3.667-1.389.247.368.741.654 1.071.695.371.04.453-.245.206-.654-1.113-2.329-4.697-1.675-6.386.204-.866.94-1.566 2.207-1.978 3.35-1.319 1.349-3.337 3.187-4.326 2.779 0 0 .453-1.308.824-2.492.206-.695.412-1.267.453-1.757.124-1.103-.247-1.839-1.607-2.002h-.082c-.989-.082-3.255 2.206-5.233 4.494l.742-2.084c.082-.245-.165-.653-.618-.94-.412-.285-.866-.285-.948-.04a396.377 396.377 0 00-2.637 7.436c-.082.245.206.612.618.94.412.244.824.285.907.081.123-.204 4.903-6.537 7.169-8.212-.083.368-.206.735-.289 1.103-.535 1.757-1.153 3.759.989 4.658 1.113.49 2.555-.572 3.749-1.798.042.613.289 1.185.824 1.634.289.204.619.409.989.49 1.03.246 2.39-1.307 3.708-2.982.289 2.043 1.896 2.41 3.709 1.103.741-.531 1.689-1.553 3.007-3.064v.082c.124.898.742 1.511 1.648 1.838.33.123.66.163 1.03.163.907-.04 2.184-1.143 3.338-2.45a157.119 157.119 0 01-2.349 5.719c-4.367 1.348-7.128 2.9-8.693 4.372-1.03.98-1.525 1.92-1.69 2.819-.164.98.165 1.92.783 2.655 1.113 1.308 2.967 2.084 4.903 1.839 1.442-.204 3.832-5.148 6.016-10.214a69.23 69.23 0 016.056-1.39c.989-.204 2.102-.367 3.338-.571 5.232-.736 11.412-1.308 16.727-1.43h.083c5.438-.164 11.742-.123 18.953.245a1.053 1.053 0 001.112-.98c0-.41-.206-.654-.536-.695zm-52.861 13.646c-1.195.163-2.184-.123-2.678-.654-.289-.368-.453-.899-.371-1.634.124-.736.618-1.635 1.566-2.533.741-.736 1.812-1.471 3.172-2.166 0 0 1.03-.53 3.173-1.266-1.813 4.33-3.709 8.048-4.862 8.253z"/><path fill-rule="evenodd" clip-rule="evenodd" d="M107.783 65.533c-.412-.286-.865-.327-.906-.082a306.876 306.876 0 00-2.967 9.274c-.082.245.247.654.659.9.412.244.824.285.907.08.004-.003.054-.094.144-.254.8-1.436 4.731-8.493 6.695-9.632.059-.059-.679 2.94-1.107 4.678-.172.698-.294 1.193-.294 1.205-.041.204.206.654.66.899.453.286.865.286.947 0v-.041c.165-.531 1.442-2.043 2.472-2.86.021-.02.052-.04.083-.061a.53.53 0 00.082-.061c0 .081-.01.163-.02.245a1.843 1.843 0 00-.021.245c-1.342 8.317 5.175-1.092 6.489-2.99.138-.2.219-.316.227-.32.123-.204.123-.49-.33-.735-.412-.327-.741.204-.865.409-.013.012-.411.476-.949 1.103-1.167 1.36-2.993 3.487-2.965 3.432.165-1.063 0-1.757-.289-2.166-.535-.735-1.153-.94-1.854-.776-.307.038-.578.218-.914.441l-.074.05c-.124.04-.248.163-.371.285.329-2.696.206-5.597-2.308-4.208-.782.45-1.854 1.757-2.925 3.269.165-.45.33-.94.494-1.43h.001c.041-.287-.248-.654-.701-.9z"/></g><defs><clipPath id="clip0"><path fill="#fff" d="M0 0h203v84H0z"/></clipPath></defs></svg>