<svg width="203" height="84" viewBox="0 0 203 84" fill="none" xmlns="http://www.w3.org/2000/svg">
<g clip-path="url(#clip0)">
<path fill-rule="evenodd" clip-rule="evenodd" d="M75.5429 33.0727C75.512 33.1238 75.4811 33.1749 75.4399 33.2157C74.9043 33.7469 74.4511 34.4006 74.1215 35.136C73.9567 35.1972 73.7816 35.2585 73.6065 35.3198C73.4314 35.3811 73.2562 35.4424 73.0914 35.5037C72.0614 35.9122 71.0313 36.2799 70.0013 36.6476C68.7653 37.0153 67.5292 37.4239 66.252 37.8733C65.8187 38.0232 65.3829 38.1755 64.9452 38.3285C63.5935 38.801 62.224 39.2797 60.8546 39.7118C60.6486 39.7935 60.525 39.8753 60.4426 39.9978C60.4014 40.1204 60.4014 40.2838 60.4426 40.4472L60.6898 41.1827C61.555 43.8792 61.8022 46.4939 61.3902 49.0679C61.0194 51.8869 60.1541 54.4609 58.8357 56.8714C55.2512 63.49 50.307 69.0873 44.0443 73.704C39.0178 77.5037 33.2907 80.3227 26.8221 82.243C25.2152 82.7332 23.5672 83.1009 21.9191 83.3869C18.9938 83.8772 15.9861 84.0815 12.8136 83.9589C11.0007 83.8772 9.14664 83.5504 7.33377 82.9784C6.18013 82.6515 5.10889 82.1612 4.07885 81.5076C2.26598 80.3636 1.07114 78.9745 0.576719 77.3811C0.411913 76.7682 0.288308 76.1146 0.288308 75.4609C0.329509 74.3169 0.576719 73.2138 1.07114 72.1924C2.14238 69.9044 3.54323 67.8616 5.3561 66.0231C9.27024 61.9375 13.7612 58.4239 18.9526 55.4823C24.6384 52.2955 30.5714 49.3947 36.7517 46.7799C42.4787 44.3286 48.3293 41.9998 54.3035 39.8344C54.8803 39.6301 55.21 39.4667 55.21 39.385V39.1399C55.1276 38.9356 54.9215 38.6496 54.5507 38.2819C53.8915 37.4648 53.1087 36.8111 52.161 36.2391C50.8014 35.3811 49.3593 34.7274 47.8761 34.2371C44.8684 33.2566 41.8195 32.5212 38.7705 32.0309C38.7531 32.0275 38.736 32.024 38.7191 32.0206C38.5364 31.9837 38.3823 31.9526 38.1937 31.99C37.2461 32.0718 36.2573 32.0718 35.2272 31.99C34.6504 31.9492 34.0736 31.9492 33.538 31.9492C33.1259 31.9492 32.6727 31.99 32.3019 32.0718L31.8487 32.1535C31.478 32.1943 31.1485 32.2352 30.819 32.276L30.8186 32.276C30.6126 32.3169 30.489 32.3578 30.4066 32.4803C30.3242 32.6029 30.283 32.7255 30.2418 32.848L30.1594 32.9706C30.1251 33.0642 30.0908 33.1596 30.0561 33.256C29.9242 33.6225 29.7869 34.0039 29.6238 34.3597C29.047 35.6262 28.5526 36.9745 28.0581 38.3227C26.9869 41.1827 26.1217 44.1243 25.4624 47.1885C25.2152 48.3325 25.1328 49.5581 25.2152 50.7838C25.2152 51.1924 25.0916 51.4375 24.762 51.4784C24.6384 51.5192 24.4736 51.5192 24.3088 51.4784C23.6908 51.3967 23.1964 51.0698 22.7843 50.5387C22.2899 49.9258 21.9603 49.2721 21.7543 48.6185C21.6307 48.2916 21.5483 47.9239 21.5071 47.597C21.3423 46.5348 21.3011 45.4725 21.4659 44.4511C22.0839 40.0795 23.2788 35.8714 25.0092 31.9083C25.9157 29.8655 26.7809 27.7819 27.5637 25.7391C27.661 25.4738 27.7727 25.2227 27.8817 24.9775C27.9574 24.8073 28.0318 24.6399 28.0993 24.4725C29.253 21.4492 30.6538 18.5893 32.3019 15.8928C32.9199 14.9531 33.6616 14.0543 34.4856 13.2371C34.8976 12.7877 35.4332 12.3792 36.0512 12.0523C36.3397 11.848 36.6281 11.7255 36.9989 11.6846C37.1225 11.6437 37.2873 11.6437 37.4521 11.6437C38.4821 11.6029 39.2238 11.8072 39.7182 12.2566C40.2126 12.706 40.501 13.1554 40.6246 13.5231C40.7482 13.8908 40.7482 14.2994 40.6658 14.7488C40.6246 15.0757 40.4598 15.3616 40.2538 15.6476C39.677 16.5465 38.9354 17.3227 38.1525 18.0173C38.0701 18.099 37.9465 18.1807 37.8641 18.2216C37.8169 18.2372 37.7817 18.2528 37.7517 18.2661C37.703 18.2877 37.6678 18.3033 37.6169 18.3033H37.3697C37.2049 18.2216 37.0813 18.2216 36.9989 18.2216C36.9783 18.242 36.9577 18.2522 36.9371 18.2624C36.9165 18.2726 36.8959 18.2829 36.8753 18.3033C36.7517 18.3441 36.6281 18.4667 36.5457 18.5893C34.8976 21.3266 33.5379 24.2274 32.4255 27.2507V27.3733V27.4959C32.4599 27.5044 32.4925 27.5129 32.5237 27.5211C32.6419 27.552 32.7397 27.5776 32.8375 27.5776C32.9611 27.6185 33.0847 27.6185 33.2083 27.5776L33.3731 27.5367C37.2873 27.2507 41.119 26.8013 44.9508 26.2293L45.9396 26.0659C50.925 25.2079 55.5808 23.778 59.9069 21.6943C62.4202 20.5095 64.4803 18.9161 66.0048 16.8733C66.6228 16.0562 67.076 15.1574 67.282 14.136C67.4468 13.3597 67.4468 12.5834 67.1996 11.8889C66.87 10.9083 66.252 10.0504 65.3043 9.19239C64.3567 8.29355 63.2443 7.599 62.0082 7.06787C58.8357 5.63791 55.5808 4.73908 52.2435 4.33052C48.3705 3.79939 44.58 3.63597 40.8306 3.84025C38.1937 3.96282 35.6392 4.24881 33.1259 4.65737L31.2719 5.02507C26.9869 5.96476 22.9492 7.35387 19.1998 9.23324C13.1432 12.2974 8.2402 16.4648 4.61447 21.776C3.21362 23.5737 2.38959 25.6574 2.14238 27.9862L2.18358 28.0679C2.14238 28.5173 2.14238 28.9667 2.22478 29.457L2.26598 29.6204C2.38959 30.029 2.6368 30.3149 3.04881 30.5192C3.29602 30.6418 3.46083 30.8052 3.50203 30.9278C3.58443 31.0912 3.54323 31.2955 3.37842 31.4589C3.21362 31.6632 2.96641 31.8266 2.6368 31.8675C2.30718 31.9492 1.93637 31.8675 1.56556 31.7041C0.906331 31.3772 0.494316 30.9278 0.247106 30.3149C0.0410986 29.6613 -0.0413045 29.0076 0.0410986 28.3539C0.247106 26.2293 0.823928 24.2683 1.77156 22.4706C3.50203 19.3247 5.76811 16.5465 8.61102 14.0951C13.8848 9.43752 20.1887 6.04647 27.6049 3.96282C29.8298 3.30912 32.1371 2.81885 34.4856 2.41029C36.6693 2.04258 38.8941 1.75659 41.2014 1.59317C46.3928 1.14375 51.7902 1.4706 57.27 2.492C59.6185 2.94141 61.9258 3.67682 64.1919 4.61651C65.3455 5.10678 66.458 5.71962 67.5292 6.45503C69.6305 7.92585 71.0313 9.6418 71.6494 11.6437C71.8966 12.42 72.0614 13.278 72.0614 14.1768C72.0614 15.8519 71.6082 17.3227 70.7429 18.671C69.5481 20.6321 67.9824 22.2663 65.9636 23.6146C62.791 25.6574 59.2065 27.2099 55.3336 28.313C52.6143 29.1301 49.8126 29.7838 46.9697 30.2741L46.64 30.3149C46.4752 30.3149 46.2692 30.3967 46.1456 30.4784C46.2692 30.5601 46.3928 30.6009 46.5164 30.6418L46.5164 30.6418C46.5988 30.6827 46.7224 30.7235 46.846 30.7644C46.8727 30.738 46.9164 30.7457 46.9663 30.7544C46.9937 30.7592 47.0229 30.7644 47.0521 30.7644C48.7001 31.1321 50.307 31.5815 51.9138 32.1943C54.8391 33.2566 57.1464 35.0134 58.9181 37.383C58.9584 37.431 58.9956 37.4759 59.0299 37.5173C59.1709 37.6875 59.2638 37.7996 59.3301 37.8325C59.3713 37.8733 59.4949 37.8733 59.5773 37.8733C59.6751 37.8733 59.7987 37.8222 59.9481 37.7603C59.9875 37.744 60.0287 37.7269 60.0717 37.7099L60.0727 37.7096C60.9376 37.4237 61.8025 37.1378 62.7086 36.8519L62.7103 36.8514C64.7286 36.157 66.7469 35.4626 68.7241 34.7683C70.949 34.0328 73.2562 33.42 75.6459 32.9297C75.6047 32.9706 75.5738 33.0217 75.5429 33.0727ZM54.7979 53.848C56.0752 51.4375 56.7344 48.8227 56.858 46.0037C56.8992 44.6554 56.7344 43.3072 56.446 41.9181L56.4048 41.7955C56.3224 41.5912 56.1988 41.4686 55.9928 41.5095L55.828 41.5912C55.521 41.7033 55.2204 41.8092 54.9237 41.9137C54.4636 42.0757 54.0127 42.2345 53.5619 42.4083C53.2735 42.49 53.0263 42.5718 52.7791 42.6943C42.8495 46.2079 33.3731 50.3344 24.3912 55.1146C21.6307 56.5445 18.9938 58.1379 16.4805 59.8539C12.9372 62.2235 9.84706 64.92 7.12776 67.9842C5.76811 69.5367 4.65567 71.2527 3.83164 73.0912C3.46083 73.8675 3.25482 74.6437 3.21362 75.5017C3.17242 75.992 3.25482 76.4414 3.37842 76.85C3.70804 77.9122 4.57327 78.7293 5.97412 79.3422C7.00416 79.7507 8.0754 80.0367 9.14664 80.2002C11.4951 80.4862 13.5964 80.4862 15.4093 80.2002C16.1097 80.1184 16.8513 79.9959 17.5518 79.8733C22.7431 79.0153 27.6049 77.4628 32.2195 75.2974C39.5946 71.6612 45.6924 66.7994 50.4718 60.7527C52.161 58.5873 53.6031 56.2994 54.7979 53.848Z" fill="white"/>
<path d="M166.784 17.6087C166.99 17.4862 167.196 17.3227 167.402 17.1593C168.226 16.4648 169.009 15.6068 169.133 15.1574C169.297 14.9122 169.792 14.5854 170.286 14.4628C170.739 14.2585 171.646 15.2799 171.481 15.6068C171.11 16.5465 167.32 19.7741 165.383 18.7527C165.342 18.671 165.26 18.6301 165.218 18.5484C165.095 18.385 165.383 17.9764 165.836 17.7313C166.166 17.5679 166.578 17.4862 166.784 17.6087Z" fill="white"/>
<path d="M111.739 55.7275C112.068 54.9513 114.54 48.9046 115.076 47.4746C115.447 46.4941 115.982 45.391 116.394 44.2061C119.402 36.1575 124.14 24.5135 128.096 23.4921C133.081 22.1847 134.77 27.4143 133.328 31.3773C132.298 35.2995 129.208 39.6711 127.23 39.9162C125.006 40.2431 123.151 39.14 121.998 37.9143C119.773 42.6536 115.776 52.7859 114.17 56.9941C114.005 57.3618 113.881 57.6886 113.716 58.0563C113.552 59.3637 113.14 60.712 112.48 61.2431C110.956 62.4279 109.308 58.2197 109.39 54.5427C109.39 50.7839 120.968 20.2236 121.627 19.0797C121.915 18.3851 125.212 19.5699 124.964 20.0602C120.391 31.9493 115.982 43.8384 111.739 55.7275ZM130.197 25.6983C128.178 26.1886 125.5 30.6419 122.781 36.2392C123.151 36.7703 124.099 37.8326 125.418 37.6692C126.901 37.4649 129.002 33.2976 129.95 29.6205C130.238 28.5174 130.527 27.5369 130.527 26.6789C130.485 25.9026 130.362 25.3306 130.156 25.1672C129.909 24.7995 130.403 25.6166 130.197 25.6983Z" fill="white"/>
<path d="M151.498 0.204034C151.704 -0.16367 152.487 -0.0411022 153.187 0.44917C153.929 0.939442 154.341 1.67485 154.135 2.04256C149.438 10.99 144.865 19.9783 140.415 29.0075C144.205 25.5348 148.243 23.2877 149.232 27.8636C149.397 28.4764 150.015 33.0523 150.015 33.0523C150.386 33.3791 152.652 32.5211 158.667 26.025C158.956 25.6982 159.326 25.0445 159.986 25.5348C160.645 26.1068 160.727 26.597 160.439 26.9239C153.682 34.1962 150.303 36.2799 148.367 34.7682C146.348 33.134 146.554 29.7838 146.018 27.3324C145.524 25.5756 135.182 39.671 135.182 39.7527C134.976 40.0795 134.276 39.9569 133.617 39.4667C132.875 38.9764 132.463 38.241 132.628 37.8733C138.643 25.2896 144.947 12.7468 151.498 0.204034Z" fill="white"/>
<path d="M171.192 23.4921C171.563 24.1866 171.398 24.5952 170.78 24.5135C170.162 24.4318 169.338 23.8598 168.968 23.2469C167.319 22.0621 163.776 24.0641 162.499 25.2489C159.944 27.6594 158.626 30.3559 158.173 33.7061C160.686 32.7255 166.784 24.5135 166.784 24.5135C167.072 24.1866 167.773 24.35 168.514 24.922C169.091 25.4532 169.462 26.0251 169.297 26.4337C169.174 26.8014 168.473 28.7216 169.132 30.6419C169.586 32.2761 178.65 23.6555 178.815 23.6146C179.103 23.2878 179.68 22.8792 180.339 23.4104C180.998 23.9823 180.998 24.5543 180.71 24.8812C176.095 29.4979 173.417 32.2353 171.481 33.4201C168.185 35.4629 165.465 34.7275 165.177 31.2547C162.705 33.9512 160.192 36.4026 158.461 35.8714C157.843 35.708 157.349 35.3403 156.854 34.9726C155.989 34.1555 155.577 33.1749 155.618 32.1127C155.577 31.2547 155.783 30.315 156.154 29.3345C156.895 27.2508 158.42 24.8812 160.233 23.1652C163.241 20.2644 169.503 19.529 171.192 23.4921Z" fill="white"/>
<path d="M90.314 56.422C90.3964 56.1769 90.8496 56.2177 91.3028 56.4629C91.756 56.708 92.0444 57.1166 91.962 57.3617C89.9019 62.959 87.8831 68.5563 85.9466 74.1944C87.8831 71.9065 90.0255 70.3131 90.932 73.0096C91.0556 73.3773 91.7148 76.0329 91.7148 76.0329C91.9208 76.1963 93.1981 75.5426 96.2058 71.3345C96.3294 71.1302 96.4942 70.7216 96.9474 70.9668C97.3594 71.2528 97.4418 71.5387 97.3182 71.743C93.9397 76.4823 92.1268 77.9123 90.932 77.136C89.6547 76.278 89.5311 74.2761 89.0779 72.8461C88.6659 71.8247 83.6805 80.8131 83.6805 80.8539C83.5981 81.0582 83.1861 81.0173 82.7741 80.7722C82.3209 80.5271 82.0325 80.1185 82.1149 79.8734C84.7106 72.0699 87.4711 64.2255 90.314 56.422Z" fill="white"/>
<path d="M97.3183 68.8833C97.4419 68.7199 97.9363 68.8016 98.3483 69.0876C98.7603 69.3736 98.9663 69.7822 98.8015 69.9865C98.6779 70.109 98.5955 70.1907 98.5131 70.3133C97.7715 71.2939 97.3595 72.7238 97.1535 74.1129C97.0711 75.2569 97.1123 76.2783 97.4007 76.646C97.6479 76.6868 97.8951 76.6051 98.2247 76.4826C98.5955 76.2783 99.0076 75.9106 99.3372 75.4203C99.8316 74.8075 100.202 73.9086 100.532 72.8464C100.697 72.2335 100.779 71.6207 100.862 71.0079C99.9552 70.5584 99.2136 69.9456 98.7191 69.251C98.2247 68.5974 97.8951 67.8619 97.8539 67.3308C97.8127 66.718 97.9775 66.2686 98.4719 66.0643C98.8427 65.9417 99.2136 65.9417 99.5844 66.0234C100.202 66.1869 100.779 66.5954 101.232 67.1265C101.603 67.5351 101.809 67.9845 102.015 68.5156C102.221 69.0468 102.345 69.6596 102.386 70.3133C103.375 70.2725 104.817 70.1499 106.135 69.0059C106.341 68.8425 106.506 68.6382 106.918 68.9242C107.289 69.251 107.33 69.537 107.124 69.7005C105.353 71.2121 103.869 71.6616 102.427 71.4981C102.427 72.2335 102.304 73.0507 102.056 73.7452C101.768 74.8075 101.356 75.7472 100.82 76.4417C100.408 76.9728 99.9964 77.3814 99.5844 77.6265C99.0487 77.9125 98.5131 77.9942 97.8951 77.8308C97.5655 77.7491 97.2359 77.5857 96.9063 77.3405C96.7827 77.2588 96.7003 77.218 96.5767 77.1363C95.6702 76.3191 95.3818 74.8075 95.5054 73.2549C95.6702 71.7841 96.1646 70.2316 96.9475 69.2102C97.0711 69.1693 97.1947 69.0059 97.3183 68.8833ZM97.5655 65.86C97.5243 66.0234 97.2359 65.9826 96.9475 65.8191C96.7003 65.6557 96.5355 65.3697 96.6179 65.288C96.7415 65.002 98.2659 63.3269 99.4608 62.4281C99.7904 62.183 100.079 61.9787 100.326 61.897C100.738 61.6927 101.15 61.7335 101.562 62.1012C101.727 62.2647 101.809 62.4281 101.809 62.6732C101.892 64.1032 102.015 64.7977 102.015 64.7977C102.056 64.9612 101.85 65.002 101.603 64.8795C101.315 64.7569 101.068 64.5118 101.068 64.3483C101.068 64.3483 100.944 63.8581 100.903 62.7549C100.738 62.8775 100.532 63.0001 100.367 63.1226C99.1724 63.9806 97.6891 65.6149 97.5655 65.86ZM100.82 69.9865C100.779 69.2919 100.614 68.6382 100.408 68.1071C100.285 67.7394 100.12 67.4125 99.9964 67.2491C99.9552 67.2491 100.038 67.2491 100.038 67.2491C99.9964 67.2083 99.8728 67.2491 99.7492 67.3308C99.502 67.3717 99.4196 67.6577 99.4608 68.0254C99.502 68.3931 99.6668 68.8425 99.9964 69.251C100.202 69.5779 100.491 69.823 100.82 69.9865Z" fill="white"/>
<path d="M72.5149 68.3925C72.5973 68.3925 72.7209 68.3925 72.8445 68.5151C73.0093 68.5968 73.0505 68.7602 73.0093 68.801C73.0093 68.8419 72.9681 68.8419 72.9269 68.8419C72.2265 69.1279 71.1964 67.8614 71.114 67.4937C71.114 67.4119 71.4436 67.0851 71.6084 67.1668C71.7732 67.2485 71.8968 67.3711 71.8968 67.4937C71.938 67.6571 72.1441 67.9839 72.3501 68.2291C72.4325 68.2699 72.4737 68.3516 72.5149 68.3925Z" fill="white"/>
<path d="M68.7241 59.4452C68.8065 59.3227 69.0949 59.3227 69.3833 59.5269C69.6717 59.6904 69.8365 59.9764 69.7541 60.0989C69.7541 60.1398 68.2297 63.2857 66.7052 66.9219C67.4056 66.7993 68.1061 66.6767 68.8065 66.5542C69.0125 66.5133 69.3833 66.6767 69.5481 66.881C69.7953 67.1261 69.7953 67.3304 69.5893 67.3713C68.4769 67.5756 67.3232 67.7798 66.2108 67.9841C65.7988 68.9647 65.3868 69.9861 65.016 71.0075C65.016 71.0075 65.016 71.0075 65.016 71.0483C65.0572 71.1709 64.9748 71.2117 64.9336 71.2526C63.7799 74.3168 63.2031 76.0328 63.6151 76.523C64.3155 77.3401 69.0949 71.7429 69.0949 71.702C69.1773 71.5794 69.3421 71.4977 69.6305 71.702C69.9189 71.9063 69.7541 72.0697 69.6717 72.1923C69.6305 72.2331 64.5215 79.6281 62.6263 77.5036C62.0494 76.8499 62.7499 73.9491 63.9447 70.6806C63.9035 70.6806 64.0683 70.3538 64.0683 70.3538C63.6975 68.2701 56.446 70.1086 56.446 70.1086C56.24 70.1495 55.8692 69.9861 55.6632 69.7818C55.4572 69.5775 55.416 69.3324 55.622 69.2915C58.8357 68.597 62.0494 67.9024 65.2632 67.2079C66.9524 63.1631 68.6829 59.4861 68.7241 59.4452ZM64.3155 69.7818C64.5215 69.2915 64.6863 68.8012 64.8924 68.311C63.6975 68.5152 62.5027 68.7195 61.3078 68.9238C62.2143 69.0872 63.7387 69.3324 64.3155 69.7818Z" fill="white"/>
<path d="M70.2487 69.414C70.3311 69.2915 70.6607 69.3323 70.9079 69.4958C71.1963 69.7 71.3199 69.9452 71.2787 70.1086C69.6307 72.9277 69.7955 74.5619 70.0427 74.6845C70.4547 74.8888 72.35 73.0911 73.3388 70.3129C73.38 70.272 73.38 70.2312 73.4212 70.1903C73.5036 70.0677 73.8332 70.0677 74.0804 70.272C74.3688 70.4354 74.5337 70.7214 74.4513 70.844C74.4513 70.844 74.4101 70.9257 74.2864 71.0891C73.998 71.6203 72.4736 74.9296 74.4101 73.4996C75.3989 72.7642 76.5113 71.4977 77.047 70.4354C77.1294 70.272 77.2118 69.986 77.5002 70.1903C77.7886 70.3537 77.665 70.558 77.5826 70.6806C77.0058 71.7837 76.1817 73.2954 75.1517 74.0308C74.2452 74.6845 72.968 74.7253 72.556 73.5814C70.2487 76.4821 67.859 76.523 68.7242 72.8868C68.9714 71.6611 69.6719 70.3129 70.2487 69.414Z" fill="white"/>
<path d="M74.0802 70.5579C74.0802 70.5579 74.7807 70.4762 74.4098 69.2505C74.3686 69.1279 74.5746 69.0053 74.8631 68.9645C75.1515 68.9236 75.4399 69.0053 75.4811 69.1279C76.0167 70.8439 74.245 71.0482 74.245 71.0482C73.9978 71.089 73.7094 71.0073 73.6682 70.8847C73.5858 70.7213 73.7918 70.5987 74.0802 70.5579Z" fill="white"/>
<path d="M73.3801 31.6631C73.6273 31.3363 74.4925 31.4588 75.2753 31.8674C76.0582 32.3577 76.429 33.0114 76.2642 33.4199C71.3612 40.6514 71.7732 44.9413 72.4324 45.2273C73.5449 45.7176 78.9423 41.1417 82.0324 33.9919C82.1148 33.8693 82.156 33.7876 82.2384 33.6651C82.4856 33.3382 83.3508 33.3791 84.0925 33.9102C84.8341 34.3596 85.2873 35.0542 85.0401 35.381C85.0401 35.381 84.9165 35.6262 84.5869 35.953C83.7629 37.2604 79.2307 45.7584 84.7105 42.1223C87.5534 40.202 90.7259 36.9744 92.4152 34.237C92.6624 33.8285 92.8684 33.0931 93.6924 33.5833C94.4341 34.0328 94.1045 34.523 93.8572 34.8499C92.1268 37.669 89.6959 41.5094 86.7706 43.4297C84.2161 45.1456 80.6315 45.2273 79.5603 42.3265C72.8857 49.7623 66.2934 49.9666 68.8891 40.5697C69.6719 37.5464 71.6908 34.0328 73.3801 31.6631Z" fill="white"/>
<path d="M106.753 1.75652C106.959 1.42967 107.742 1.47053 108.443 2.00166C109.143 2.45107 109.596 3.18648 109.39 3.51333C109.39 3.59504 107.454 7.14952 102.922 16.3421C109.39 15.2799 115.859 14.2585 122.369 13.2779C122.904 13.1962 123.811 13.6456 124.305 14.2176C124.882 14.8713 124.882 15.4433 124.347 15.4841C116.765 16.5873 109.184 17.8129 101.603 19.0795C100.408 21.5717 99.2136 24.1456 98.1011 26.6378C98.1011 26.6787 98.1011 26.6787 98.1011 26.7196C98.1423 27.0055 98.0187 27.169 97.8539 27.2098C94.4754 34.9316 92.7861 39.3441 93.8574 40.5697C95.5878 42.6943 108.772 28.7624 108.814 28.7215C109.061 28.4764 109.514 28.2312 110.214 28.7624C110.915 29.2935 110.544 29.702 110.256 29.988C110.091 30.0289 95.9174 48.5367 91.2205 42.9803C89.7372 41.2234 91.9209 33.9102 95.423 25.6573C95.3406 25.6573 95.7526 24.7993 95.7526 24.7993C94.9698 19.4472 81.6617 22.5522 81.6617 22.5931C81.1261 22.6748 80.1784 22.3071 79.684 21.6534C79.1072 21.1223 79.066 20.5503 79.6016 20.4277C86.1527 19.202 92.7037 18.0172 99.296 16.9141C104.075 6.65925 106.671 1.83823 106.753 1.75652ZM96.3707 23.4102C96.9475 22.1437 97.4831 20.918 98.0599 19.6515C94.8874 20.06 91.7149 20.5094 88.5012 20.9589C93.775 20.7137 94.8874 22.1437 96.3707 23.4102Z" fill="white"/>
<path d="M84.175 34.4005C84.175 34.4005 86.0291 34.2371 85.1227 31.0912C84.9991 30.8052 85.5759 30.4783 86.2763 30.3558C87.0591 30.2741 87.7184 30.5192 87.842 30.8052C89.1192 35.2176 84.5458 35.6262 84.4634 35.6671C83.763 35.7488 83.1038 35.5445 82.939 35.2176C82.8978 34.8499 83.4334 34.4822 84.175 34.4005Z" fill="white"/>
<path d="M80.1785 29.4159C80.3021 29.2117 80.5905 29.1299 80.8377 28.9257C81.6206 28.3128 82.4858 27.414 82.6918 27.0054C82.7742 26.7194 83.3098 26.3517 83.8454 26.27C84.3811 26.1883 85.2463 27.2097 85.1639 27.4957C84.7519 28.5171 80.6729 31.6222 78.5717 30.519C78.5305 30.4373 78.448 30.3965 78.3656 30.3148C78.242 30.1513 78.5305 29.7836 79.1073 29.5385C79.5193 29.3342 79.9313 29.2934 80.1785 29.4159Z" fill="white"/>
<path d="M202.464 63.8988C183.347 62.8366 170.451 64.1031 162.293 65.6556C160.398 65.9416 158.791 66.2685 157.596 66.5953C159.574 61.7334 161.222 57.321 161.222 57.2801L161.263 57.2393C161.51 56.6673 161.757 56.0545 162.004 55.4825C162.087 55.2373 161.84 54.8696 161.428 54.5836C160.974 54.2976 160.645 54.2159 160.48 54.4611C160.645 54.9922 156.648 62.4688 153.641 62.3054C153.352 62.1829 153.311 61.2432 153.352 61.0797C153.723 59.6906 154.547 57.9338 155.742 56.177C155.865 55.9319 155.659 55.5642 155.247 55.2373C154.835 54.9513 154.382 54.8288 154.259 55.0739C153.27 56.5856 152.487 58.0973 152.075 59.4046C150.798 60.7529 147.502 64.1848 147.213 63.4085C146.76 62.2646 147.131 61.1206 147.172 60.8755C147.254 60.6303 147.048 60.3035 146.678 60.0175C146.224 59.6906 145.812 59.6498 145.647 59.8132C145.647 59.8132 142.434 64.8794 140.992 65.533C141.157 63.5311 141.816 61.8969 143.217 60.3443C143.876 59.6089 145.895 58.3015 146.884 58.9552C147.131 59.3229 147.625 59.6089 147.955 59.6498C148.326 59.6906 148.408 59.4046 148.161 58.9961C147.048 56.6673 143.464 57.321 141.775 59.2004C140.909 60.1401 140.209 61.4066 139.797 62.5506C138.478 63.8988 136.46 65.7373 135.471 65.3288C135.471 65.3288 135.924 64.0214 136.295 62.8366C136.501 62.142 136.707 61.57 136.748 61.0797C136.872 59.9766 136.501 59.2412 135.141 59.0778C135.1 59.0778 135.1 59.0778 135.059 59.0778C134.07 58.9961 131.804 61.284 129.826 63.572C130.073 62.8774 130.321 62.1829 130.568 61.4883C130.65 61.2432 130.403 60.8346 129.95 60.5486C129.538 60.2626 129.084 60.2626 129.002 60.5078C128.096 62.9591 127.23 65.4513 126.365 67.9436C126.283 68.1887 126.571 68.5564 126.983 68.8832C127.395 69.1284 127.807 69.1692 127.89 68.965C128.013 68.7607 132.793 62.428 135.059 60.7529C134.976 61.1206 134.853 61.4883 134.77 61.856C134.235 63.6128 133.617 65.6148 135.759 66.5136C136.872 67.0039 138.314 65.9416 139.508 64.7159C139.55 65.3288 139.797 65.9008 140.332 66.3502C140.621 66.5544 140.951 66.7587 141.321 66.8404C142.351 67.0856 143.711 65.5331 145.029 63.858C145.318 65.9008 146.925 66.2685 148.738 64.9611C149.479 64.4299 150.427 63.4085 151.745 61.8969C151.745 61.9377 151.745 61.9377 151.745 61.9786C151.869 62.8774 152.487 63.4902 153.393 63.8171C153.723 63.9397 154.053 63.9805 154.423 63.9805C155.33 63.9397 156.607 62.8366 157.761 61.5292C157.101 63.2451 156.277 65.2471 155.412 67.249C151.045 68.5973 148.284 70.1498 146.719 71.6206C145.689 72.6011 145.194 73.5408 145.029 74.4397C144.865 75.4202 145.194 76.3599 145.812 77.0953C146.925 78.4027 148.779 79.179 150.715 78.9338C152.157 78.7295 154.547 73.786 156.731 68.7198C158.338 68.2704 160.356 67.7801 162.787 67.3307C163.776 67.1264 164.889 66.963 166.125 66.7587C171.357 66.0233 177.537 65.4513 182.852 65.3288C182.894 65.3288 182.894 65.3288 182.935 65.3288C188.373 65.1653 194.677 65.2062 201.888 65.5739C202.464 65.6148 202.959 65.1653 203 64.5934C203 64.1848 202.794 63.9397 202.464 63.8988ZM149.603 77.5447C148.408 77.7082 147.419 77.4222 146.925 76.891C146.636 76.5233 146.472 75.9922 146.554 75.2568C146.678 74.5214 147.172 73.6225 148.12 72.7237C148.861 71.9883 149.932 71.2529 151.292 70.5583C151.292 70.5583 152.322 70.0272 154.465 69.2918C152.652 73.6225 150.756 77.3404 149.603 77.5447Z" fill="white"/>
<path fill-rule="evenodd" clip-rule="evenodd" d="M107.783 65.5327C107.371 65.2467 106.918 65.2059 106.877 65.451C105.847 68.5152 104.858 71.5794 103.91 74.7253C103.828 74.9704 104.157 75.379 104.569 75.6241C104.981 75.8693 105.393 75.9101 105.476 75.7059C105.48 75.7018 105.53 75.6114 105.62 75.451C106.42 74.0147 110.351 66.958 112.315 65.8187C112.374 65.7604 111.636 68.7584 111.208 70.4967C111.036 71.1952 110.914 71.6903 110.914 71.702C110.873 71.9062 111.12 72.3557 111.574 72.6008C112.027 72.8868 112.439 72.8868 112.521 72.6008V72.5599C112.686 72.0288 113.963 70.5171 114.993 69.7C115.014 69.6796 115.045 69.6592 115.076 69.6387C115.107 69.6183 115.138 69.5979 115.158 69.5775C115.158 69.6592 115.148 69.7409 115.138 69.8226C115.127 69.9043 115.117 69.986 115.117 70.0677C113.775 78.3849 120.292 68.9763 121.606 67.0785C121.744 66.8788 121.825 66.7623 121.833 66.7584C121.956 66.5541 121.956 66.2681 121.503 66.023C121.091 65.6961 120.762 66.2273 120.638 66.4315C120.625 66.4444 120.227 66.9082 119.689 67.5346C118.522 68.895 116.696 71.0225 116.724 70.9666C116.889 69.9043 116.724 69.2097 116.435 68.8012C115.9 68.0658 115.282 67.8615 114.581 68.0249C114.274 68.063 114.003 68.2432 113.667 68.4661C113.642 68.4822 113.618 68.4986 113.593 68.5152C113.469 68.556 113.345 68.6786 113.222 68.8012C113.551 66.1047 113.428 63.2039 110.914 64.593C110.132 65.0424 109.06 66.3498 107.989 67.8615C108.154 67.4123 108.319 66.9224 108.483 66.4324L108.484 66.4315C108.525 66.1455 108.236 65.7778 107.783 65.5327Z" fill="white"/>
</g>
<defs>
<clipPath id="clip0">
<rect width="203" height="84" fill="white"/>
</clipPath>
</defs>
</svg>
