<svg width="26" height="25" fill="none" xmlns="http://www.w3.org/2000/svg"><rect x="1.334" y="1.042" width="22.917" height="22.917" rx="4" fill="#fff"/><path d="M5.756 20.665c-.086-.04-.148-.086-.048-.176.063-.05.13-.096.197-.14.627-.428 1.215-.895 1.603-1.583.325-.573.273-.91-.134-1.332-2.269-2.381-3.264-5.23-2.766-8.596.282-1.9 1.11-3.542 2.316-4.969.727-.864 1.594-1.562 2.541-2.145.058-.035.139-.045.149-.136-.02-.05-.053-.035-.082-.035-1.613 0-3.225-.035-4.833.01-1.541.05-2.872 1.301-2.867 3.095.01 5.24 0 10.48 0 15.726 0 1.627 1.182 2.989 2.728 3.05 1.306.054 2.613.01 3.924.004.096.005.192.01.287.01h6.91c1.724 0 3.447.01 5.17 0 1.598 0 2.895-1.356 2.895-3.03V17.45c0-.07.024-.145-.02-.22-.086.004-.12.08-.167.13a10.598 10.598 0 01-3.226 2.326c-2.943 1.362-5.938 1.457-8.977.362-.264-.1-.55-.11-.824-.04-.402.105-.799.23-1.196.356-1.168.382-2.36.553-3.58.302z" fill="#6E7573"/><path fill-rule="evenodd" clip-rule="evenodd" d="M4.821 1.042a3.487 3.487 0 00-3.487 3.487v15.942a3.487 3.487 0 003.487 3.487h15.942a3.487 3.487 0 003.487-3.487V4.53a3.487 3.487 0 00-3.487-3.487H4.821zm-2.49 3.487a2.49 2.49 0 012.49-2.49h15.942a2.491 2.491 0 012.491 2.49v15.942a2.491 2.491 0 01-2.49 2.491H4.82a2.49 2.49 0 01-2.49-2.49V4.528zm12.447 5.027c.114-.155.234-.301.43-.341.378-.08.732.176.737.578.015 1.004.01 2.01 0 3.014a.591.591 0 01-.397.568.565.565 0 01-.67-.196c-.081-.106-.115-.126-.23-.03-.435.371-.928.437-1.46.256-.851-.291-1.2-.99-1.296-1.839-.1-.92.191-1.703.976-2.185.65-.407 1.311-.372 1.91.175zm-1.695 1.834c.01.221.077.432.201.608a.766.766 0 001.259 0c.268-.382.268-1.01 0-1.392a.71.71 0 00-.57-.316c-.526-.035-.894.392-.89 1.1zm5.011.03c-.038-1.29.77-2.256 1.919-2.29 1.22-.04 2.11.818 2.149 2.074.038 1.271-.704 2.17-1.848 2.291-1.248.13-2.24-.819-2.22-2.075zm1.201-.12c-.01.251.062.497.206.703a.756.756 0 001.1.15.942.942 0 00.14-.14c.277-.382.277-1.025.004-1.407a.723.723 0 00-.57-.316c-.516-.03-.88.382-.88 1.01zm-1.622-.88v.78c.002.519.003 1.038 0 1.557.005.357-.263.653-.603.663a.712.712 0 01-.177-.02c-.24-.066-.421-.332-.421-.648V8.758l-.001-.236c-.002-.156-.003-.31 0-.468.005-.387.24-.638.594-.638.364-.005.608.246.608.648.003.523.002 1.048 0 1.572v.785zM9.226 12.2l.72-.002c.462-.001.91-.002 1.357.001.378.005.584.17.622.487.043.397-.177.664-.589.669-.581.007-1.16.006-1.74.005h-.58l-.193.001c-.16.002-.317.004-.478-.006-.277-.016-.55-.076-.684-.377-.134-.302-.038-.573.144-.82.737-.984 1.478-1.974 2.22-2.958.043-.06.086-.12.13-.176-.036-.063-.082-.058-.126-.053a.236.236 0 01-.047.003c-.258-.003-.518-.003-.778-.003s-.519 0-.777-.002c-.12 0-.24-.015-.354-.04a.53.53 0 01-.379-.634.518.518 0 01.369-.392c.115-.03.234-.045.354-.045.852-.005 1.709-.005 2.56 0 .154-.005.302.015.45.056.326.115.465.432.335.763-.115.287-.296.533-.478.779-.627.839-1.254 1.673-1.881 2.502-.053.065-.1.13-.177.241z" fill="#6E7573"/></svg>