<svg width="50" height="50" fill="none" xmlns="http://www.w3.org/2000/svg"><path d="M48.256 49.652H1.42A1.42 1.42 0 010 48.233v-2.838a1.42 1.42 0 011.42-1.42h46.836a1.42 1.42 0 011.42 1.42v2.838a1.419 1.419 0 01-1.42 1.42zM1.42 45.394v2.84h46.837v-2.84H1.42z" fill="url(#paint0_linear)"/><path d="M46.127 45.395H3.548a.71.71 0 01-.71-.71V33.33a4.973 4.973 0 014.968-4.967H41.87a4.973 4.973 0 014.967 4.967v11.355a.71.71 0 01-.71.71zm-41.87-1.42h41.16V33.33a3.552 3.552 0 00-3.547-3.548H7.806a3.552 3.552 0 00-3.548 3.548v10.645z" fill="url(#paint1_linear)"/><path d="M39.03 40.072a5.748 5.748 0 01-3.992-1.575 4.447 4.447 0 00-6.21 0 5.846 5.846 0 01-7.983 0 4.446 4.446 0 00-6.21 0 5.843 5.843 0 01-7.98 0 4.375 4.375 0 00-3.107-1.264.71.71 0 110-1.419 5.74 5.74 0 013.99 1.575 4.442 4.442 0 006.207 0 5.846 5.846 0 017.983 0 4.444 4.444 0 006.209 0 5.848 5.848 0 017.984 0 4.45 4.45 0 006.214 0 5.743 5.743 0 013.992-1.575.71.71 0 010 1.42 4.38 4.38 0 00-3.106 1.263 5.748 5.748 0 01-3.99 1.575z" fill="url(#paint2_linear)"/><path d="M41.16 29.782H8.516a.71.71 0 01-.71-.71V18.428a3.553 3.553 0 013.548-3.549h26.967a3.552 3.552 0 013.549 3.549v10.645a.71.71 0 01-.71.71zm-31.934-1.42H40.45v-9.934a2.129 2.129 0 00-2.129-2.13H11.355a2.129 2.129 0 00-2.13 2.13v9.935z" fill="url(#paint3_linear)"/><path d="M35.717 24.838a4.542 4.542 0 01-3.164-1.243 3.247 3.247 0 00-4.556 0 4.646 4.646 0 01-6.327 0 3.245 3.245 0 00-4.553 0 4.644 4.644 0 01-6.326 0 3.18 3.18 0 00-2.275-.933.71.71 0 010-1.42 4.541 4.541 0 013.162 1.244 3.244 3.244 0 004.552 0 4.646 4.646 0 016.327 0 3.246 3.246 0 004.553 0 4.647 4.647 0 016.329 0 3.249 3.249 0 004.557 0 4.542 4.542 0 013.164-1.243.71.71 0 110 1.42 3.19 3.19 0 00-2.279.932 4.543 4.543 0 01-3.164 1.243z" fill="url(#paint4_linear)"/><path d="M33.354 16.299h-4.258a.71.71 0 01-.71-.71V7.073a.71.71 0 01.71-.71h4.258a.71.71 0 01.71.71v8.516a.71.71 0 01-.71.71zm-3.549-1.42h2.839V7.783h-2.839v7.096z" fill="url(#paint5_linear)"/><path d="M20.58 16.299h-4.258a.71.71 0 01-.71-.71V7.073a.71.71 0 01.71-.71h4.258a.71.71 0 01.71.71v8.516a.71.71 0 01-.71.71zm-3.548-1.42h2.838V7.783h-2.838v7.096z" fill="url(#paint6_linear)"/><path d="M31.225 5.95a2.129 2.129 0 01-2.13-2.13c0-.885 1.065-2.743 1.522-3.5a.738.738 0 011.216 0c.456.757 1.52 2.614 1.52 3.5a2.13 2.13 0 01-2.128 2.13zm0-3.818a6.598 6.598 0 00-.71 1.69.71.71 0 001.42 0 6.59 6.59 0 00-.71-1.69z" fill="url(#paint7_linear)"/><path d="M31.225 7.783a.71.71 0 01-.71-.71V5.24a.71.71 0 011.42 0v1.833a.71.71 0 01-.71.71z" fill="url(#paint8_linear)"/><path d="M18.451 5.95a2.129 2.129 0 01-2.129-2.13c0-.885 1.065-2.743 1.521-3.5a.738.738 0 011.216 0c.456.757 1.52 2.614 1.52 3.5a2.13 2.13 0 01-2.128 2.13zm0-3.818a6.598 6.598 0 00-.71 1.69.71.71 0 001.42 0 6.59 6.59 0 00-.71-1.69z" fill="url(#paint9_linear)"/><path d="M18.451 7.783a.71.71 0 01-.71-.71V5.24a.71.71 0 011.42 0v1.833a.71.71 0 01-.71.71z" fill="url(#paint10_linear)"/><defs><linearGradient id="paint5_linear" x1="28.548" y1="11.331" x2="34.063" y2="11.331" gradientUnits="userSpaceOnUse"><stop stop-color="#015AAD"/><stop offset="1" stop-color="#00B74F"/></linearGradient><linearGradient id="paint0_linear" x1="1.419" y1="46.814" x2="49.676" y2="46.814" gradientUnits="userSpaceOnUse"><stop stop-color="#015AAD"/><stop offset="1" stop-color="#00B74F"/></linearGradient><linearGradient id="paint2_linear" x1="4.096" y1="37.943" x2="46.837" y2="37.943" gradientUnits="userSpaceOnUse"><stop stop-color="#015AAD"/><stop offset="1" stop-color="#00B74F"/></linearGradient><linearGradient id="paint3_linear" x1="8.78" y1="22.331" x2="41.87" y2="22.331" gradientUnits="userSpaceOnUse"><stop stop-color="#015AAD"/><stop offset="1" stop-color="#00B74F"/></linearGradient><linearGradient id="paint4_linear" x1="8.78" y1="23.04" x2="41.87" y2="23.04" gradientUnits="userSpaceOnUse"><stop stop-color="#015AAD"/><stop offset="1" stop-color="#00B74F"/></linearGradient><linearGradient id="paint1_linear" x1="4.096" y1="36.879" x2="46.837" y2="36.879" gradientUnits="userSpaceOnUse"><stop stop-color="#015AAD"/><stop offset="1" stop-color="#00B74F"/></linearGradient><linearGradient id="paint6_linear" x1="15.775" y1="11.331" x2="21.29" y2="11.331" gradientUnits="userSpaceOnUse"><stop stop-color="#015AAD"/><stop offset="1" stop-color="#00B74F"/></linearGradient><linearGradient id="paint7_linear" x1="29.218" y1="2.975" x2="33.354" y2="2.975" gradientUnits="userSpaceOnUse"><stop stop-color="#015AAD"/><stop offset="1" stop-color="#00B74F"/></linearGradient><linearGradient id="paint8_linear" x1="30.556" y1="6.157" x2="31.934" y2="6.157" gradientUnits="userSpaceOnUse"><stop stop-color="#015AAD"/><stop offset="1" stop-color="#00B74F"/></linearGradient><linearGradient id="paint9_linear" x1="16.444" y1="2.975" x2="20.58" y2="2.975" gradientUnits="userSpaceOnUse"><stop stop-color="#015AAD"/><stop offset="1" stop-color="#00B74F"/></linearGradient><linearGradient id="paint10_linear" x1="17.782" y1="6.157" x2="19.161" y2="6.157" gradientUnits="userSpaceOnUse"><stop stop-color="#015AAD"/><stop offset="1" stop-color="#00B74F"/></linearGradient></defs></svg>