<svg width="49" height="48" fill="none" xmlns="http://www.w3.org/2000/svg"><path d="M17.065 25.798c-.37 0-.67.3-.67.67v1.895a.67.67 0 101.341 0v-1.895c0-.37-.3-.67-.67-.67z" fill="url(#paint0_linear)"/><path d="M48.956 27.784c0-2.009-1.646-3.643-3.669-3.643s-3.668 1.634-3.668 3.643c0 .83.28 1.594.75 2.207a22.53 22.53 0 01-3.151 1.19V19.918a.67.67 0 10-1.342 0v11.638c-.738.188-1.506.359-2.3.51V4.74a1.13 1.13 0 00-1.13-1.129H14.507a1.13 1.13 0 00-1.13 1.13v27.325a39.461 39.461 0 01-2.3-.51V1.34h26.8v15.285a.67.67 0 101.34 0V1.18c0-.65-.53-1.18-1.183-1.18H10.923c-.655 0-1.187.53-1.187 1.18v30.002a22.521 22.521 0 01-3.152-1.19 3.62 3.62 0 00.75-2.208c0-2.009-1.645-3.643-3.668-3.643C1.645 24.14 0 25.775 0 27.784c0 1.07.466 2.033 1.206 2.7V46.89c0 .612.5 1.11 1.113 1.11h2.697c.614 0 1.113-.498 1.113-1.11v-.523h36.695v.523c0 .612.5 1.11 1.114 1.11h2.699c.614 0 1.113-.498 1.113-1.11V30.484a3.627 3.627 0 001.206-2.7zm-3.669-2.302c1.284 0 2.328 1.033 2.328 2.302 0 1.27-1.044 2.305-2.328 2.305-1.283 0-2.327-1.034-2.327-2.305 0-1.27 1.044-2.302 2.327-2.302zm-2.463 5.775v10.184h-3.606v-8.867c1.338-.385 2.55-.826 3.606-1.317zm-4.948 1.673v8.51h-2.3v-8.014a42.247 42.247 0 002.3-.496zM14.72 4.953h19.515v27.35c-6.102.986-13.413.986-19.515 0V4.952zm-1.341 28.473v8.015h-2.3v-8.51c.736.18 1.504.346 2.3.495zm-3.642 8.015H6.129V31.257c1.057.491 2.268.932 3.607 1.317v8.867zm-6.07-15.96c1.284 0 2.328 1.034 2.328 2.303 0 1.27-1.045 2.305-2.328 2.305a2.318 2.318 0 01-2.325-2.305c0-1.27 1.043-2.302 2.325-2.302zM4.788 46.66h-2.24V31.256a3.667 3.667 0 002.24 0v15.403zm1.341-1.634v-2.243h16.697a.67.67 0 100-1.341h-8.107v-7.784c2.984.474 6.3.728 9.758.728 3.457 0 6.773-.255 9.757-.728v7.784h-8.09a.67.67 0 000 1.341h16.68v2.243H6.13zm40.28 1.634h-2.243V31.255a3.675 3.675 0 002.243 0V46.66z" fill="url(#paint1_linear)"/><path d="M21.164 16.338c-.005.436.189.668.352.785a.816.816 0 00.484.153c.11 0 .232-.019.37-.067l2.066-.71 2.067.71c.415.143.697.03.86-.09.163-.119.355-.352.345-.786l-.041-2.165 1.315-1.726c.268-.35.25-.654.187-.847-.063-.193-.227-.45-.645-.573l-2.092-.63-1.249-1.779c-.252-.357-.544-.432-.745-.432-.202 0-.494.075-.746.432l-1.25 1.778-2.085.63c-.424.123-.588.38-.651.572-.063.194-.082.498.185.847l1.315 1.728-.042 2.17zm1.888-4.73a.672.672 0 00.355-.256l1.03-1.467 1.03 1.467a.671.671 0 00.356.256l1.714.518-1.079 1.415a.67.67 0 00-.137.42l.034 1.78-1.701-.585a.671.671 0 00-.436 0l-1.701.585.034-1.78a.671.671 0 00-.137-.42l-1.076-1.415 1.714-.518z" fill="url(#paint2_linear)"/><path d="M28.955 20.313c0-.37-.3-.67-.671-.67h-7.129a.67.67 0 100 1.34h7.129c.37 0 .67-.3.67-.67z" fill="url(#paint3_linear)"/><defs><linearGradient id="paint0_linear" x1="16.433" y1="27.416" x2="17.736" y2="27.416" gradientUnits="userSpaceOnUse"><stop stop-color="#015AAD"/><stop offset="1" stop-color="#00B74F"/></linearGradient><linearGradient id="paint1_linear" x1="1.399" y1="24" x2="48.956" y2="24" gradientUnits="userSpaceOnUse"><stop stop-color="#015AAD"/><stop offset="1" stop-color="#00B74F"/></linearGradient><linearGradient id="paint2_linear" x1="19.939" y1="12.729" x2="29.208" y2="12.729" gradientUnits="userSpaceOnUse"><stop stop-color="#015AAD"/><stop offset="1" stop-color="#00B74F"/></linearGradient><linearGradient id="paint3_linear" x1="20.727" y1="20.313" x2="28.955" y2="20.313" gradientUnits="userSpaceOnUse"><stop stop-color="#015AAD"/><stop offset="1" stop-color="#00B74F"/></linearGradient></defs></svg>