<svg width="58" height="58" fill="none" xmlns="http://www.w3.org/2000/svg"><path d="M39.959 33.019H10.057l25.894-16.464a.68.68 0 00.209-.938l-2.566-4.035a4.11 4.11 0 00-5.668-1.262l-3.643 2.316.288-1.38a3.888 3.888 0 10-7.588-1.69l-1.893 8.502-6.338-1.41a3.887 3.887 0 00-2.38 7.366L2.47 26.506a4.11 4.11 0 00-1.262 5.667l2.565 4.035a.68.68 0 00.938.21l2.389-1.52v17.206a4.11 4.11 0 004.106 4.106h25.328a4.11 4.11 0 004.106-4.106V33.698a.681.681 0 00-.68-.68zM28.656 11.467a2.73 2.73 0 012.07-.363 2.729 2.729 0 011.721 1.207l2.2 3.462-10.704 6.806-3.675-5.779 8.388-5.333zM18.31 9.862a2.528 2.528 0 014.933 1.107l-.558 2.67-6.08 3.88 1.705-7.657zm.81 7.668l3.675 5.778-6.203 3.945-3.674-5.78 6.203-3.943zM5.775 21.808a2.528 2.528 0 012.682-3.824l5.493 1.223-6.097 3.822-.494-.11a2.512 2.512 0 01-1.584-1.111zM4.556 34.906l-2.201-3.462a2.75 2.75 0 01.844-3.791l8.572-5.45 3.674 5.779-10.89 6.924zm13.18 19.946h-6.53a2.75 2.75 0 01-2.747-2.747V34.378h9.278v20.474zm8.64 0h-7.28V34.378h7.28v20.474zm12.903-2.747a2.75 2.75 0 01-2.746 2.747h-8.798V34.378h11.544v17.727z" fill="url(#paint0_linear)"/><path d="M47.56 26.844l.324-1.896a.68.68 0 00-.986-.716l-1.702.895-1.703-.895a.68.68 0 00-.986.716l.325 1.896-1.377 1.343a.68.68 0 00.377 1.16l1.903.276.851 1.724a.68.68 0 001.22 0l.85-1.724 1.904-.277a.68.68 0 00.376-1.16l-1.377-1.342zm-1.453 1.484a.679.679 0 00-.511.372l-.4.81-.4-.81a.68.68 0 00-.512-.372l-.894-.13.647-.63a.68.68 0 00.196-.602l-.153-.89.8.42a.679.679 0 00.632 0l.8-.42-.153.89a.68.68 0 00.195.602l.647.63-.894.13z" fill="url(#paint1_linear)"/><path d="M55.377 17.48l-1.87-.455-.685-1.797a.68.68 0 00-1.214-.115l-1.01 1.638-1.92.096a.68.68 0 00-.484 1.119l1.245 1.466-.502 1.857a.679.679 0 00.915.806l1.779-.731 1.611 1.05a.679.679 0 001.05-.62l-.146-1.918 1.496-1.207a.68.68 0 00-.266-1.19zm-2.363 1.563a.679.679 0 00-.251.58l.068.901-.757-.494a.679.679 0 00-.63-.06l-.835.344.235-.872a.68.68 0 00-.138-.617l-.585-.689.903-.045a.68.68 0 00.544-.322l.474-.77.322.845a.68.68 0 00.475.418l.878.214-.703.567z" fill="url(#paint2_linear)"/><path d="M45.38 6.43l-.501 1.857a.68.68 0 00.914.806l1.779-.731 1.61 1.05a.68.68 0 001.05-.62l-.146-1.918 1.497-1.207a.68.68 0 00-.266-1.19l-1.869-.454-.685-1.797a.68.68 0 00-1.214-.114l-1.01 1.637-1.92.096a.68.68 0 00-.484 1.12L45.38 6.43zm1.585-1.342a.68.68 0 00.545-.322l.474-.769.322.845a.68.68 0 00.475.418l.877.213-.703.567a.679.679 0 00-.251.58l.068.902-.757-.494a.68.68 0 00-.63-.06l-.835.344.236-.872a.68.68 0 00-.139-.618l-.584-.688.902-.046z" fill="url(#paint3_linear)"/><path d="M33.05 26.942c-1.535.966-2.285 2.136-2.316 2.186a.68.68 0 101.148.728c.102-.159 2.561-3.876 7.914-2.552a.68.68 0 00.326-1.32c-3.293-.815-5.664.071-7.073.958z" fill="url(#paint4_linear)"/><path d="M45.947 19.744a.68.68 0 00.521-1.256c-4.839-2.008-8.356-.504-10.454 1.111a12.745 12.745 0 00-3.383 3.993.68.68 0 001.218.605 11.464 11.464 0 012.995-3.52c2.638-2.031 5.7-2.345 9.103-.933z" fill="url(#paint5_linear)"/><path d="M38.31 14.709a.68.68 0 00.437.856c.935.275 1.906.416 2.881.416 1.137 0 2.45-.205 3.627-.903 1.54-.913 2.528-2.468 2.938-4.622a.681.681 0 00-.806-.794.679.679 0 00-.53.54c-.332 1.752-1.103 2.998-2.29 3.704-2.256 1.342-5.354.381-5.403.365a.68.68 0 00-.855.438z" fill="url(#paint6_linear)"/><path d="M29.325 32.27a1.224 1.224 0 100-2.448 1.224 1.224 0 000 2.449zm0-1.359a.135.135 0 01.133.162.135.135 0 11-.133-.162z" fill="url(#paint7_linear)"/><path d="M38.956 10.068a1.224 1.224 0 100-2.449 1.224 1.224 0 000 2.449zm0-1.36a.136.136 0 110 .272.136.136 0 010-.272z" fill="url(#paint8_linear)"/><path d="M56.21 9.134a1.224 1.224 0 100 2.448 1.224 1.224 0 000-2.448zm0 1.36a.135.135 0 01-.096-.232.135.135 0 11.096.231z" fill="url(#paint9_linear)"/><path d="M28.824 25.378a1.224 1.224 0 10-2.449 0 1.224 1.224 0 002.449 0zm-1.224.136a.136.136 0 01-.133-.162.136.136 0 01.268.026.136.136 0 01-.135.135v.001z" fill="url(#paint10_linear)"/><path d="M54.194 26.147a1.224 1.224 0 100 2.448 1.224 1.224 0 000-2.448zm0 1.359a.135.135 0 01-.027-.268.134.134 0 01.14.058.135.135 0 01-.113.21z" fill="url(#paint11_linear)"/><defs><linearGradient id="paint1_linear" x1="41.475" y1="27.94" x2="49.142" y2="27.94" gradientUnits="userSpaceOnUse"><stop stop-color="#015AAD"/><stop offset="1" stop-color="#00B74F"/></linearGradient><linearGradient id="paint6_linear" x1="38.56" y1="12.814" x2="48.205" y2="12.814" gradientUnits="userSpaceOnUse"><stop stop-color="#015AAD"/><stop offset="1" stop-color="#00B74F"/></linearGradient><linearGradient id="paint2_linear" x1="48.257" y1="18.658" x2="55.895" y2="18.658" gradientUnits="userSpaceOnUse"><stop stop-color="#015AAD"/><stop offset="1" stop-color="#00B74F"/></linearGradient><linearGradient id="paint3_linear" x1="44.198" y1="5.656" x2="51.836" y2="5.656" gradientUnits="userSpaceOnUse"><stop stop-color="#015AAD"/><stop offset="1" stop-color="#00B74F"/></linearGradient><linearGradient id="paint4_linear" x1="30.914" y1="27.917" x2="40.633" y2="27.917" gradientUnits="userSpaceOnUse"><stop stop-color="#015AAD"/><stop offset="1" stop-color="#00B74F"/></linearGradient><linearGradient id="paint5_linear" x1="32.969" y1="21.049" x2="46.887" y2="21.049" gradientUnits="userSpaceOnUse"><stop stop-color="#015AAD"/><stop offset="1" stop-color="#00B74F"/></linearGradient><linearGradient id="paint0_linear" x1="1.713" y1="31.358" x2="40.639" y2="31.358" gradientUnits="userSpaceOnUse"><stop stop-color="#015AAD"/><stop offset="1" stop-color="#00B74F"/></linearGradient><linearGradient id="paint7_linear" x1="28.171" y1="31.047" x2="30.549" y2="31.047" gradientUnits="userSpaceOnUse"><stop stop-color="#015AAD"/><stop offset="1" stop-color="#00B74F"/></linearGradient><linearGradient id="paint8_linear" x1="37.802" y1="8.844" x2="40.18" y2="8.844" gradientUnits="userSpaceOnUse"><stop stop-color="#015AAD"/><stop offset="1" stop-color="#00B74F"/></linearGradient><linearGradient id="paint9_linear" x1="55.055" y1="10.358" x2="57.434" y2="10.358" gradientUnits="userSpaceOnUse"><stop stop-color="#015AAD"/><stop offset="1" stop-color="#00B74F"/></linearGradient><linearGradient id="paint10_linear" x1="26.445" y1="25.378" x2="28.824" y2="25.378" gradientUnits="userSpaceOnUse"><stop stop-color="#015AAD"/><stop offset="1" stop-color="#00B74F"/></linearGradient><linearGradient id="paint11_linear" x1="53.04" y1="27.371" x2="55.418" y2="27.371" gradientUnits="userSpaceOnUse"><stop stop-color="#015AAD"/><stop offset="1" stop-color="#00B74F"/></linearGradient></defs></svg>