<svg width="204" height="34" fill="none" xmlns="http://www.w3.org/2000/svg"><path d="M136.097 18.99zm4.916-.365zm-.069-.161c.039.044.061.1.069.157a.35.35 0 00-.069-.157z" fill="#E10600"/><path d="M140.935 18.877l-7.789 9.057 7.789-9.057z" fill="#fff"/><path d="M141.013 18.712a.253.253 0 000-.087.331.331 0 00-.069-.156.305.305 0 00-.244-.113h-2.282a4.55 4.55 0 00-3.442 1.577l-3.603 4.177v4.771c1.164-.165 1.773-.943 1.773-.943l7.789-9.056a.342.342 0 00.078-.17zm-.243.026l-7.798 9.066c-.004.008-.478.604-1.382.817v-4.429l3.551-4.115a4.318 4.318 0 013.277-1.504h2.282c.057 0 .079.035.087.057.013.017.022.06-.017.108z" fill="#fff"/><path d="M140.792 18.63a.092.092 0 00-.087-.057h-2.282a4.318 4.318 0 00-3.278 1.503l-3.551 4.116-.217.247v4.229l.217-.048c.904-.213 1.378-.808 1.382-.817l7.794-9.065c.039-.048.03-.091.022-.109z" fill="#E10600"/><path d="M50.168 32.897L43.34 12.559h4.36l4.968 15.632 4.942-15.632H62l-6.86 20.338h-4.972zm21.229-20.338c1.948 0 3.604.67 4.943 1.977 1.338 1.308 2.003 2.934 2.003 4.854 0 1.917-.669 3.546-2.003 4.854-1.34 1.308-2.995 1.978-4.943 1.978h-3.573v6.684h-4.011V12.568h7.584v-.01zm0 9.908c1.713 0 2.965-1.338 2.965-3.081 0-1.773-1.252-3.081-2.965-3.081h-3.573v6.158h3.573v.004zM95.191 27c0 1.712-.609 3.137-1.83 4.241-1.221 1.104-2.73 1.656-4.503 1.656h-8.633V12.559h8.02c1.743 0 3.195.552 4.39 1.625 1.191 1.074 1.804 2.442 1.804 4.098 0 1.686-.639 3.05-1.917 4.068 1.765 1.017 2.669 2.585 2.669 4.65zM84.233 16.31v4.475h4.012c1.252 0 2.178-.96 2.178-2.238 0-1.277-.9-2.238-2.178-2.238h-4.012zm4.62 12.84c1.365 0 2.357-1.016 2.357-2.411 0-1.365-.987-2.381-2.356-2.381h-4.62v4.793h4.62zm35.978-9.586c1.048 1.074 1.569 2.53 1.569 4.416v8.92h-3.747v-8.457c0-1.946-1.134-2.994-2.877-2.994-1.947 0-3.195 1.191-3.195 3.603v7.844h-3.747V18.369h3.747v1.625c.9-1.364 2.356-2.033 4.329-2.033 1.596.004 2.904.526 3.921 1.603zm6.546 5.198v8.135h-3.747V12.559h3.747v12.203zm-23.529-6.392v1.711c-1.134-1.425-2.703-2.12-4.737-2.12-1.948 0-3.604.756-5 2.238-1.364 1.482-2.064 3.28-2.064 5.432 0 2.151.7 3.98 2.065 5.462 1.395 1.482 3.051 2.208 4.999 2.208 2.034 0 3.603-.695 4.737-2.12v1.712h3.747V18.365h-3.747v.004zm-4.068 11.459a4.212 4.212 0 110-8.424 4.212 4.212 0 010 8.424zM39.532 12.633a1.197 1.197 0 00-1.113-.726H34.02a9.382 9.382 0 00-7.059 3.203l.913-1.06a5.925 5.925 0 001.439-3.868V1.208C29.313.543 28.77 0 28.1 0c-.352 0-.674.148-.908.422l-7.229 8.374-.143.17-.144-.17L12.448.422A1.193 1.193 0 0011.539 0c-.669 0-1.212.543-1.212 1.208v8.974a5.92 5.92 0 001.438 3.868l.913 1.06a9.367 9.367 0 00-7.059-3.203H1.22c-.486 0-.912.278-1.112.726-.2.448-.118.947.213 1.308L15.325 31.39c.14.174 1.435 1.7 3.8 2.034l.686.096h.005l.686-.096c2.365-.33 3.66-1.86 3.8-2.034l15.017-17.461c.33-.343.409-.847.213-1.295zM28.1.617c.009 0 .018.004.03.004a.478.478 0 00-.156.013.44.44 0 01.126-.017zm-16.587 0c.01 0 .018-.004.03-.004a.62.62 0 01.127.013 1.886 1.886 0 00-.157-.009z" fill="#fff"/><path d="M38.42 12.52h-4.4a8.76 8.76 0 00-6.642 3.042l-6.95 8.057v9.204c2.243-.313 3.417-1.82 3.417-1.82l15.022-17.47a.605.605 0 00-.448-1.013zm-37.195 0h4.399a8.76 8.76 0 016.641 3.042l6.95 8.057v9.204c-2.242-.313-3.416-1.82-3.416-1.82L.777 13.532a.605.605 0 01.448-1.013zM28.704 1.217v8.974a5.297 5.297 0 01-1.29 3.468l-6.99 8.1V9.199L27.652.827a.598.598 0 011.052.39zm-17.764 0v8.974a5.3 5.3 0 001.29 3.468l6.99 8.1V9.199L11.99.827a.598.598 0 00-1.051.39zM140.7 18.352h-2.282a4.54 4.54 0 00-3.442 1.578l-3.603 4.176v4.772c1.164-.166 1.773-.943 1.773-.943l7.789-9.057a.315.315 0 00-.235-.526z" fill="#E10600"/><path d="M135.406 25.853l-1.056 1.186a1.931 1.931 0 00-.039 2.52 261.054 261.054 0 012.725 3.343h4.151l-5.781-7.049zm5.721-7.375a.462.462 0 00-.426-.278h-2.282a4.7 4.7 0 00-3.56 1.63l-3.643 4.219v.47l.304-.357 3.569-4.137a4.389 4.389 0 013.33-1.525h2.282c.1 0 .139.073.147.095a.16.16 0 01-.03.178l-7.794 9.066c-.004.008-.526.656-1.499.856l-.265.047-.039-.008v.313l.173-.027c1.209-.169 1.843-.964 1.865-.995l7.789-9.056a.44.44 0 00.079-.491zm22.698-3.954v14.632c0 2.064-1.695 3.741-3.773 3.741a3.785 3.785 0 01-3.499-2.355c-.009-.018-.017-.03-.022-.048l-.013-.03-.013-.026-5.294-13.12v13.62a1.968 1.968 0 01-1.978 1.964 1.971 1.971 0 01-1.978-1.965V16.344c0-2.068 1.696-3.746 3.773-3.746a3.774 3.774 0 013.595 2.612l5.246 13.003v-13.69c0-1.082.883-1.964 1.978-1.964 1.091 0 1.978.883 1.978 1.965zm36.738.973c-1.974-1.973-4.369-2.938-7.233-2.938-2.821 0-5.259.965-7.233 2.938-1.973 1.973-2.977 4.367-2.977 7.231 0 2.86 1.004 5.259 2.977 7.232 1.974 1.973 4.408 2.937 7.233 2.937 2.86 0 5.259-.964 7.233-2.937 1.973-1.973 2.977-4.368 2.977-7.232.005-2.86-1.004-5.258-2.977-7.231zm-2.83 11.973c-1.191 1.19-2.656 1.786-4.403 1.786-1.743 0-3.212-.596-4.399-1.787-1.191-1.19-1.786-2.694-1.786-4.48 0-1.786.595-3.29 1.786-4.48 1.187-1.191 2.656-1.787 4.399-1.787 1.743 0 3.212.596 4.403 1.787 1.191 1.19 1.787 2.694 1.787 4.48 0 1.782-.596 3.29-1.787 4.48zm-18.065 1.003a2.213 2.213 0 110 4.424h-10.066a2.216 2.216 0 01-2.217-2.212c0-1.22.991-2.212 2.217-2.212h10.066zm-12.396-7.957c-1.222 0-2.217.991-2.217 2.212s.991 2.212 2.217 2.212h12.401a2.213 2.213 0 000-4.424h-12.401zm2.33-7.957c-1.222 0-2.217.991-2.217 2.212s.991 2.212 2.217 2.212h10.066a2.213 2.213 0 100-4.424h-10.066z" fill="#fff"/></svg>