<svg width="138" height="23" fill="none" xmlns="http://www.w3.org/2000/svg"><path d="M25.544 8.043H22.57a5.919 5.919 0 00-4.488 2.056l-4.696 5.446v6.22c1.516-.21 2.309-1.23 2.309-1.23l10.15-11.807a.409.409 0 00-.302-.685zm-25.133 0h2.973a5.92 5.92 0 014.487 2.056l4.697 5.446v6.22c-1.516-.21-2.309-1.23-2.309-1.23L.11 8.728a.408.408 0 01.302-.685zM18.98.404V6.47a3.58 3.58 0 01-.873 2.344l-4.723 5.475V5.8L18.27.14a.405.405 0 01.71.264zm-12.005 0V6.47c0 .86.309 1.692.873 2.344l4.722 5.475V5.8L7.686.14a.405.405 0 00-.71.264zm87.679 11.563h-1.541c-.893 0-1.742.388-2.327 1.066l-2.434 2.823v3.225c.787-.112 1.198-.637 1.198-.637l5.263-6.121a.213.213 0 00-.159-.356z" fill="#E10600"/><path d="M90.969 17.037l-.714.802a1.306 1.306 0 00-.026 1.704c.737.88 1.841 2.258 1.841 2.258h2.805l-3.906-4.764zm-57.487 4.761L28.868 8.053h2.946l3.357 10.564 3.34-10.564h2.966l-4.635 13.745h-3.36zM47.827 8.052c1.316 0 2.435.453 3.34 1.337.904.884 1.353 1.982 1.353 3.28 0 1.296-.452 2.397-1.354 3.281-.904.884-2.023 1.337-3.34 1.337h-2.413v4.517h-2.711V8.058h5.125v-.006zm0 6.697c1.157 0 2.003-.905 2.003-2.083 0-1.198-.846-2.082-2.003-2.082h-2.414v4.162h2.414v.003zm16.074 3.063c0 1.157-.411 2.12-1.237 2.867-.825.746-1.844 1.119-3.042 1.119h-5.833V8.052h5.419c1.177 0 2.158.373 2.966 1.099.805.725 1.219 1.65 1.219 2.77 0 1.139-.432 2.061-1.295 2.748 1.195.688 1.803 1.748 1.803 3.143zM56.5 10.587v3.025h2.71c.846 0 1.472-.649 1.472-1.512 0-.864-.608-1.513-1.471-1.513H56.5zm3.122 8.68c.922 0 1.592-.688 1.592-1.631 0-.922-.667-1.61-1.592-1.61H56.5v3.24h3.122zm24.309-6.48c.708.725 1.06 1.71 1.06 2.984v6.03H82.46v-5.716c0-1.316-.767-2.023-1.944-2.023-1.316 0-2.16.804-2.16 2.435v5.3h-2.53V11.98h2.53v1.099c.609-.923 1.593-1.375 2.926-1.375 1.078.003 1.962.356 2.65 1.084zm4.424 3.513v5.498h-2.532V8.052h2.532V16.3zm-15.898-4.32v1.156c-.767-.963-1.827-1.433-3.202-1.433-1.316 0-2.435.511-3.377 1.513-.923 1.001-1.396 2.217-1.396 3.671 0 1.454.473 2.69 1.395 3.692.943 1.002 2.062 1.492 3.378 1.492 1.375 0 2.435-.473 3.202-1.433v1.157h2.531v-9.819h-2.531v.003zm-2.752 7.744a2.847 2.847 0 110-5.693 2.847 2.847 0 010 5.693z" fill="#00B74F"/><path d="M110.18 9.43v9.851c0 1.39-1.146 2.52-2.549 2.52a2.558 2.558 0 01-2.365-1.586c-.006-.012-.012-.02-.014-.032l-.009-.02-.009-.018-3.577-8.835v9.17c0 .73-.597 1.321-1.337 1.321-.737 0-1.336-.59-1.336-1.321v-9.825c0-1.392 1.145-2.523 2.549-2.523a2.55 2.55 0 012.429 1.76l3.545 8.752v-9.21c0-.73.596-1.323 1.336-1.323a1.323 1.323 0 011.337 1.32zm24.824.635c-1.334-1.328-2.952-1.98-4.888-1.98-1.906 0-3.553.652-4.887 1.98-1.333 1.33-2.012 2.943-2.012 4.872 0 1.927.679 3.542 2.012 4.873 1.334 1.327 2.978 1.98 4.887 1.98 1.933 0 3.554-.653 4.888-1.98 1.333-1.328 2.011-2.943 2.011-4.873 0-1.926-.678-3.542-2.011-4.872zm-1.912 8.065c-.805.802-1.795 1.201-2.976 1.201-1.18 0-2.17-.4-2.972-1.201-.805-.802-1.207-1.818-1.207-3.02 0-1.2.402-2.217 1.207-3.019.802-.802 1.795-1.201 2.972-1.201 1.178 0 2.171.402 2.976 1.201.804.802 1.207 1.815 1.207 3.02 0 1.204-.403 2.217-1.207 3.019zm-12.207.69a1.495 1.495 0 110 2.99h-6.802c-.825 0-1.498-.67-1.498-1.495 0-.825.67-1.495 1.498-1.495h6.802zm-8.376-5.357c-.825 0-1.498.67-1.498 1.495 0 .825.67 1.495 1.498 1.495h8.379a1.495 1.495 0 000-2.99h-8.379zm1.574-5.357c-.825 0-1.498.67-1.498 1.495 0 .825.67 1.494 1.498 1.494h6.802a1.495 1.495 0 000-2.99h-6.802z" fill="url(#paint0_linear)"/><defs><linearGradient id="paint0_linear" x1="98.842" y1="14.948" x2="136.477" y2="14.948" gradientUnits="userSpaceOnUse"><stop offset=".1" stop-color="#00B74F"/><stop offset="1" stop-color="#1D4289"/></linearGradient></defs></svg>