<svg width="169" height="28" fill="none" xmlns="http://www.w3.org/2000/svg"><path d="M113.002 15.768zm4.082-.303zm-.058-.134a.247.247 0 01.058.13.3.3 0 00-.058-.13z" fill="#E10600"/><path d="M117.019 15.674l-6.467 7.52 6.467-7.52zm.065-.137a.218.218 0 000-.072.28.28 0 00-.058-.13.252.252 0 00-.202-.094h-1.895a3.777 3.777 0 00-2.858 1.31l-2.992 3.468v3.961a2.399 2.399 0 001.473-.783l6.467-7.52a.292.292 0 00.065-.14zm-.202.022l-6.475 7.527c-.003.007-.397.501-1.147.678v-3.677l2.948-3.417a3.585 3.585 0 012.721-1.248h1.895c.047 0 .065.028.072.046.011.015.018.051-.014.09z" fill="#fff"/><path d="M116.9 15.468a.076.076 0 00-.072-.047h-1.895a3.583 3.583 0 00-2.721 1.249l-2.949 3.417-.18.206v3.51l.18-.04a2.168 2.168 0 001.148-.678l6.471-7.527c.032-.04.025-.075.018-.09z" fill="#E10600"/><path d="M41.655 27.315l-5.67-16.887h3.62l4.125 12.98 4.104-12.98h3.645l-5.695 16.887h-4.13zm17.626-16.887c1.617 0 2.992.555 4.104 1.641 1.111 1.087 1.664 2.436 1.664 4.03 0 1.592-.556 2.945-1.664 4.031-1.112 1.086-2.487 1.642-4.104 1.642h-2.966v5.55h-3.331V10.435h6.297v-.007zm0 8.227c1.422 0 2.462-1.112 2.462-2.559 0-1.472-1.04-2.558-2.462-2.558h-2.966v5.113h2.966v.004zm19.756 3.763c0 1.422-.505 2.605-1.52 3.522-1.013.916-2.266 1.374-3.738 1.374H66.61V10.428h6.659c1.447 0 2.653.458 3.645 1.35.989.89 1.498 2.027 1.498 3.402 0 1.4-.53 2.533-1.592 3.377 1.466.845 2.216 2.147 2.216 3.861zm-9.098-8.876v3.716h3.331c1.04 0 1.808-.797 1.808-1.858 0-1.06-.747-1.858-1.808-1.858h-3.331zm3.836 10.662c1.133 0 1.956-.844 1.956-2.003 0-1.133-.819-1.977-1.956-1.977H69.94v3.98h3.836zm29.872-7.96c.87.892 1.303 2.1 1.303 3.666v7.408h-3.111v-7.022c0-1.616-.942-2.486-2.389-2.486-1.617 0-2.653.989-2.653 2.992v6.512h-3.11V15.252h3.11v1.35c.748-1.133 1.957-1.69 3.595-1.69 1.325.004 2.411.437 3.255 1.332zm5.436 4.316v6.754h-3.111V10.428h3.111V20.56zm-19.536-5.308v1.422c-.942-1.184-2.245-1.761-3.934-1.761-1.617 0-2.992.628-4.15 1.858-1.134 1.23-1.715 2.724-1.715 4.51 0 1.787.581 3.306 1.715 4.536 1.158 1.23 2.533 1.833 4.15 1.833 1.689 0 2.992-.577 3.934-1.76v1.42h3.11V15.249h-3.11v.004zm-3.378 9.515a3.498 3.498 0 110-6.995 3.498 3.498 0 010 6.995zM32.824 10.49a.994.994 0 00-.924-.603h-3.653a7.79 7.79 0 00-5.86 2.659l.757-.88a4.92 4.92 0 001.195-3.212v-7.45C24.339.45 23.888 0 23.332 0a.979.979 0 00-.755.35l-6.001 6.953-.12.14-.119-.14L10.335.35A.99.99 0 009.582 0c-.556 0-1.007.451-1.007 1.003v7.451c0 1.176.423 2.317 1.195 3.211l.758.88a7.777 7.777 0 00-5.861-2.658H1.013a1 1 0 00-.924.602.988.988 0 00.177 1.086l12.459 14.487c.115.145 1.19 1.411 3.154 1.69l.57.079h.004l.57-.08c1.963-.274 3.039-1.544 3.154-1.689l12.47-14.498a.973.973 0 00.177-1.075zM23.332.511c.007 0 .014.004.025.004a.396.396 0 00-.13.01.365.365 0 01.105-.014zM9.56.512c.007 0 .014-.003.025-.003.036 0 .068.003.104.01-.043-.003-.086-.007-.13-.007z" fill="#fff"/><path d="M31.9 10.395h-3.653c-2.118 0-4.132.92-5.514 2.526l-5.771 6.69v7.642c1.862-.26 2.836-1.512 2.836-1.512l12.473-14.505a.502.502 0 00-.372-.84zm-30.883 0h3.652c2.119 0 4.133.92 5.515 2.526l5.77 6.69v7.642c-1.862-.26-2.836-1.512-2.836-1.512L.645 11.236a.502.502 0 01.372-.84zM23.833 1.01v7.451a4.397 4.397 0 01-1.072 2.88l-5.803 6.726V7.639L22.96.686a.496.496 0 01.873.324zm-14.75 0v7.451c0 1.058.379 2.079 1.072 2.88l5.803 6.726V7.639L9.956.686a.496.496 0 00-.873.324zm107.741 14.228h-1.895a3.77 3.77 0 00-2.858 1.31l-2.992 3.467v3.962a2.399 2.399 0 001.473-.783l6.467-7.52a.262.262 0 00-.195-.436z" fill="#E10600"/><path d="M112.428 21.466l-.877.985a1.604 1.604 0 00-.032 2.093 226.585 226.585 0 012.263 2.774h3.446l-4.8-5.852zm4.75-6.124a.385.385 0 00-.354-.23h-1.895a3.905 3.905 0 00-2.955 1.352l-3.025 3.504v.39l.253-.296 2.963-3.435a3.643 3.643 0 012.764-1.267h1.895a.13.13 0 01.123.08.137.137 0 01-.025.148l-6.471 7.526a2.26 2.26 0 01-1.246.711l-.22.04-.032-.007v.26l.144-.022c1.004-.14 1.53-.801 1.548-.826l6.468-7.52a.366.366 0 00.065-.408zm18.846-3.283v12.149c0 1.714-1.407 3.107-3.132 3.107a3.144 3.144 0 01-2.906-1.956c-.007-.015-.014-.025-.018-.04l-.011-.025-.01-.022-4.396-10.893v11.308c0 .902-.733 1.631-1.642 1.631a1.636 1.636 0 01-1.642-1.63V13.57c0-1.718 1.407-3.11 3.132-3.11 1.368 0 2.574.883 2.985 2.168l4.356 10.796V12.059c0-.898.733-1.631 1.642-1.631.906 0 1.642.732 1.642 1.63zm30.504.808c-1.639-1.638-3.627-2.439-6.006-2.439-2.342 0-4.366.801-6.005 2.44-1.638 1.637-2.472 3.626-2.472 6.003 0 2.375.834 4.366 2.472 6.005 1.639 1.638 3.66 2.439 6.005 2.439 2.375 0 4.367-.801 6.006-2.44 1.638-1.638 2.472-3.626 2.472-6.004.004-2.374-.834-4.366-2.472-6.004zm-2.35 9.94c-.988.99-2.205 1.484-3.656 1.484-1.447 0-2.667-.494-3.652-1.483-.989-.989-1.483-2.237-1.483-3.72s.494-2.732 1.483-3.72c.985-.989 2.205-1.483 3.652-1.483 1.448 0 2.668.494 3.656 1.483.989.988 1.484 2.237 1.484 3.72 0 1.48-.495 2.731-1.484 3.72zm-14.999.834a1.837 1.837 0 010 3.674h-8.358a1.84 1.84 0 01-1.841-1.837c0-1.014.823-1.837 1.841-1.837h8.358zm-10.293-6.606a1.84 1.84 0 00-1.84 1.836c0 1.014.823 1.837 1.84 1.837h10.297a1.837 1.837 0 000-3.673h-10.297zm1.935-6.607a1.84 1.84 0 00-1.841 1.837c0 1.013.823 1.836 1.841 1.836h8.358a1.837 1.837 0 000-3.673h-8.358z" fill="#fff"/></svg>