<svg width="160" height="56" fill="none" xmlns="http://www.w3.org/2000/svg"><g clip-path="url(#clip0)"><path d="M156.889 24.485v.576h.283c.283 0 .428-.097.428-.292 0-.187-.145-.276-.428-.276h-.283v-.008zm-.541 1.948v-2.427h.856c.275 0 .485.049.638.138a.7.7 0 01.291.593c0 .365-.169.608-.501.73.081.13.283.446.59.966h-.622l-.525-.901h-.186v.9h-.541zm2.497-1.234c0-.47-.17-.868-.493-1.201-.332-.333-.72-.503-1.172-.503-.469 0-.857.17-1.188.495a1.677 1.677 0 00-.485 1.21c0 .47.162.876.485 1.209a1.57 1.57 0 001.18.495c.46 0 .856-.163 1.18-.495.323-.333.493-.731.493-1.21zm-.202-1.485c.404.414.614.909.614 1.485a2 2 0 01-.614 1.485 2.013 2.013 0 01-1.479.617 1.992 1.992 0 01-1.471-.617 2.015 2.015 0 01-.614-1.485c0-.576.202-1.08.606-1.485a2.02 2.02 0 011.487-.617 2.057 2.057 0 011.471.617z" fill="#00B74F"/><path d="M150.432 30.158zm5.431-.406a.2.2 0 010 .098v-.098zm-.081-.178z" fill="#E10600"/><path d="M155.774 30.036l-8.598 10.04 8.598-10.04zm-.186-.162l-8.598 10.048c-.008.008-.533.665-1.527.9v-4.91l3.919-4.56a4.774 4.774 0 013.62-1.665h2.513c.065 0 .089.041.097.065.008.025.024.074-.024.122zm.275-.024c.008-.033 0-.065 0-.098a.338.338 0 00-.081-.17.355.355 0 00-.267-.13h-2.513a5.028 5.028 0 00-3.798 1.745l-3.976 4.634v5.292c1.285-.179 1.956-1.047 1.956-1.047l8.598-10.04a.43.43 0 00.081-.186z" fill="#fff"/><path d="M155.612 29.752a.102.102 0 00-.097-.064h-2.513c-1.39 0-2.707.608-3.62 1.663l-3.919 4.561-.243.276v4.683l.243-.048c.994-.236 1.519-.893 1.527-.901l8.598-10.048c.048-.048.032-.097.024-.122z" fill="#E10600"/><path d="M55.645 45.57l-7.532-22.538h4.808l5.479 17.32 5.455-17.32h4.84L61.123 45.57h-5.478zm23.418-11.557c1.89 0 3.272-1.485 3.272-3.416 0-1.965-1.381-3.417-3.272-3.417h-3.944v6.825h3.944v.008zm0-10.98c2.15 0 3.975.738 5.446 2.19 1.47 1.445 2.214 3.255 2.214 5.373 0 2.127-.735 3.929-2.214 5.373-1.479 1.453-3.305 2.192-5.446 2.192h-3.944v7.401H70.7v-22.53h8.364zM98.32 41.415c1.502 0 2.593-1.128 2.593-2.67 0-1.51-1.09-2.638-2.594-2.638H93.22v5.316h5.1v-.008zm-5.1-14.227v4.959h4.42c1.382 0 2.409-1.063 2.409-2.476 0-1.412-.994-2.475-2.409-2.475h-4.42v-.008zm12.089 11.85c0 1.898-.671 3.48-2.02 4.698-1.35 1.226-3.014 1.834-4.97 1.834H88.8V23.032h8.849c1.923 0 3.523.61 4.84 1.802 1.317 1.193 1.988 2.703 1.988 4.537 0 1.867-.703 3.376-2.117 4.504 1.955 1.137 2.949 2.873 2.949 5.162zm32.695-8.247c1.156 1.193 1.729 2.8 1.729 4.894v9.885h-4.137v-9.365c0-2.16-1.253-3.32-3.176-3.32-2.149 0-3.523 1.323-3.523 3.993v8.692h-4.137V29.468h4.137v1.802c.994-1.51 2.594-2.256 4.776-2.256 1.769.008 3.216.584 4.331 1.777zm7.224 5.763v9.016h-4.129V23.032h4.129v13.522zm-30.44 5.616a4.652 4.652 0 01-4.647-4.667 4.652 4.652 0 014.647-4.666c2.562 0 4.646 2.085 4.646 4.666-.008 2.573-2.084 4.667-4.646 4.667zm4.485-12.702v1.9c-1.253-1.575-2.982-2.354-5.229-2.354-2.149 0-3.975.836-5.511 2.475-1.503 1.64-2.278 3.636-2.278 6.022s.767 4.407 2.278 6.055c1.536 1.64 3.37 2.45 5.511 2.45 2.247 0 3.976-.77 5.229-2.353v1.9h4.137V29.467h-4.137z" fill="#00B74F"/><path d="M13.002 9.795h.032c.049 0 .09.008.138.016-.057-.016-.113-.016-.17-.016zm18.303 0h.032c-.056 0-.113 0-.17.016a.708.708 0 01.138-.016zm12.606 13.318a1.325 1.325 0 00-1.228-.803h-4.857a10.31 10.31 0 00-7.79 3.555l1.01-1.177a6.603 6.603 0 001.584-4.285V10.46c0-.739-.598-1.34-1.333-1.34-.388 0-.743.163-1.002.463l-7.968 9.285-.161.186-.162-.186-7.968-9.285a1.304 1.304 0 00-1.002-.462c-.735 0-1.333.6-1.333 1.339v9.942c0 1.574.566 3.092 1.584 4.285l1.01 1.177a10.32 10.32 0 00-7.782-3.555H1.657c-.542 0-1.01.308-1.229.803a1.334 1.334 0 00.235 1.453l16.55 19.332c.153.195 1.583 1.883 4.193 2.257l.76.105h.008l.76-.105c2.61-.366 4.04-2.062 4.193-2.257L43.693 24.55a1.33 1.33 0 00.218-1.437z" fill="#fff"/><path d="M42.683 22.984h-4.857a9.69 9.69 0 00-7.329 3.368l-7.669 8.927v10.202c2.473-.349 3.766-2.013 3.766-2.013l16.574-19.356a.669.669 0 00-.485-1.128zm-41.026 0h4.856a9.69 9.69 0 017.33 3.368l7.668 8.927v10.202c-2.473-.349-3.765-2.013-3.765-2.013L1.155 24.112c-.388-.43-.081-1.128.5-1.128zM31.968 10.46v9.943a5.893 5.893 0 01-1.422 3.847l-7.71 8.976V19.307l7.968-9.284a.663.663 0 011.164.438zm-19.596 0v9.943c0 1.412.5 2.776 1.422 3.847l7.709 8.976V19.307l-7.968-9.284a.663.663 0 00-1.163.438zm143.143 18.992h-2.521a5.031 5.031 0 00-3.798 1.745l-3.976 4.634v5.292c1.285-.179 1.956-1.047 1.956-1.047l8.598-10.04a.35.35 0 00-.259-.584z" fill="#E10600"/><path d="M149.673 37.763l-1.164 1.315a2.14 2.14 0 00-.04 2.791 290.98 290.98 0 013.006 3.701h4.582l-6.384-7.807z" fill="#00B74F"/></g><defs><clipPath id="clip0"><path fill="#fff" transform="translate(0 9)" d="M0 0h160v37.333H0z"/></clipPath></defs></svg>