<svg width="54" height="53" fill="none" xmlns="http://www.w3.org/2000/svg"><path d="M50.948 14.825l1.2-1.218a2.981 2.981 0 00.695-3.052 2.837 2.837 0 00-2.261-1.944L44.8 7.738a1.066 1.066 0 01-.795-.619L41.4 1.635a2.779 2.779 0 00-5.065 0l-2.607 5.49a1.066 1.066 0 01-.795.618l-5.783.873a2.837 2.837 0 00-2.26 1.944 2.981 2.981 0 00.694 3.053l.519.53H4.417A4.422 4.422 0 000 18.559v30.024A4.422 4.422 0 004.417 53h44.167A4.422 4.422 0 0053 48.583V18.55a4.389 4.389 0 00-2.052-3.725zm-24.38-3.71c.114-.393.444-.685.848-.752l5.782-.874a2.831 2.831 0 002.126-1.604l2.606-5.49a1.015 1.015 0 011.874 0l2.606 5.49a2.831 2.831 0 002.126 1.604l5.782.874c.404.067.734.359.849.752.15.436.043.92-.277 1.251l-4.15 4.204a3.003 3.003 0 00-.805 2.59l.984 5.965c.085.453-.097.914-.47 1.186a.958.958 0 01-1.039.063l-5.226-2.855a2.739 2.739 0 00-2.632 0l-5.22 2.855a.958.958 0 01-1.04-.063 1.193 1.193 0 01-.47-1.186l.98-5.965a3.003 3.003 0 00-.81-2.59l-4.147-4.204a1.227 1.227 0 01-.277-1.254v.003zM4.416 15.9h23.431l1.886 1.911c.27.282.391.675.324 1.06l-.984 5.966a2.948 2.948 0 001.191 2.915 2.73 2.73 0 002.909.176l5.224-2.856a.971.971 0 01.938 0l5.224 2.856a2.727 2.727 0 002.909-.177 2.949 2.949 0 001.19-2.915l-.983-5.965a1.226 1.226 0 01.324-1.06l1.656-1.678a2.628 2.628 0 011.578 2.417v16.783H1.767V18.55a2.65 2.65 0 012.65-2.65zm46.817 28.267H1.767V37.1h49.467v7.067zm-2.65 7.066H4.417a2.65 2.65 0 01-2.65-2.65v-2.65h49.467v2.65a2.65 2.65 0 01-2.65 2.65z" fill="url(#paint0_linear)"/><path d="M38.867 30.917a.883.883 0 00.883-.884v-2.65a.883.883 0 00-1.766 0v2.65c0 .488.395.884.883.884z" fill="url(#paint1_linear)"/><path d="M38.867 34.45a.883.883 0 00.883-.884v-.883a.883.883 0 00-1.766 0v.883c0 .488.395.884.883.884z" fill="url(#paint2_linear)"/><path d="M42.4 32.683a.883.883 0 00.884-.883v-2.65a.883.883 0 00-1.767 0v2.65c0 .488.395.883.883.883z" fill="url(#paint3_linear)"/><path d="M35.334 32.683a.883.883 0 00.883-.883v-2.65a.883.883 0 00-1.767 0v2.65c0 .488.396.883.884.883z" fill="url(#paint4_linear)"/><path d="M7.95 30.033h8.834a2.65 2.65 0 002.65-2.65v-5.3a2.65 2.65 0 00-2.65-2.65H7.95a2.65 2.65 0 00-2.65 2.65v5.3a2.65 2.65 0 002.65 2.65zm-.883-7.95c0-.488.395-.883.883-.883h8.834c.487 0 .883.395.883.883v5.3a.883.883 0 01-.884.884H7.95a.883.883 0 01-.883-.884v-5.3z" fill="url(#paint5_linear)"/><defs><linearGradient id="paint0_linear" x1="1.514" y1="26.5" x2="53.003" y2="26.5" gradientUnits="userSpaceOnUse"><stop stop-color="#015AAD"/><stop offset="1" stop-color="#00B74F"/></linearGradient><linearGradient id="paint1_linear" x1="38.034" y1="28.708" x2="39.75" y2="28.708" gradientUnits="userSpaceOnUse"><stop stop-color="#015AAD"/><stop offset="1" stop-color="#00B74F"/></linearGradient><linearGradient id="paint2_linear" x1="38.034" y1="33.125" x2="39.75" y2="33.125" gradientUnits="userSpaceOnUse"><stop stop-color="#015AAD"/><stop offset="1" stop-color="#00B74F"/></linearGradient><linearGradient id="paint3_linear" x1="41.567" y1="30.475" x2="43.284" y2="30.475" gradientUnits="userSpaceOnUse"><stop stop-color="#015AAD"/><stop offset="1" stop-color="#00B74F"/></linearGradient><linearGradient id="paint4_linear" x1="34.501" y1="30.475" x2="36.217" y2="30.475" gradientUnits="userSpaceOnUse"><stop stop-color="#015AAD"/><stop offset="1" stop-color="#00B74F"/></linearGradient><linearGradient id="paint5_linear" x1="5.704" y1="24.733" x2="19.433" y2="24.733" gradientUnits="userSpaceOnUse"><stop stop-color="#015AAD"/><stop offset="1" stop-color="#00B74F"/></linearGradient></defs></svg>