<svg width="65" height="65" fill="none" xmlns="http://www.w3.org/2000/svg"><path d="M52.045 42.623l-.333.25a.763.763 0 00.346 1.367.761.761 0 00.566-.148l.333-.249a.761.761 0 10-.912-1.22zm-5.05-30.796c.175 0 .344-.06.48-.17l3.063-2.489a.762.762 0 00-.96-1.182l-3.064 2.488a.762.762 0 00.48 1.353zm-4.704 2.076l-5.57 4.524a.762.762 0 10.96 1.183l5.57-4.524a.76.76 0 00-.4-1.351.76.76 0 00-.56.168zM28.34 26.977c.174 0 .344-.06.48-.17l4.03-3.274a.763.763 0 00-.96-1.183l-4.03 3.274a.761.761 0 00.48 1.353zm32.674-5.214l-2.776 2.336a.762.762 0 00.981 1.165l2.776-2.336a.762.762 0 00-.98-1.166h-.001zm-7.668 6.452l-9.44 7.944a.762.762 0 10.98 1.166l9.44-7.944a.762.762 0 00-.98-1.166zM40.748 39.812a.76.76 0 00-1.074-.093l-1.556 1.31a.762.762 0 10.98 1.166l1.557-1.31a.762.762 0 00.093-1.073zm21.116-29.346L50.47 19.403a.765.765 0 00-.132 1.072.763.763 0 001.073.127l11.393-8.938a.761.761 0 10-.94-1.198zM44.395 25.898c.17 0 .336-.057.47-.162l1.777-1.393a.762.762 0 00-.94-1.2l-1.776 1.394a.761.761 0 00.47 1.361zM27.742 38.283a.76.76 0 001.07.125l11.211-8.874a.762.762 0 00-.945-1.195l-11.212 8.874a.762.762 0 00-.124 1.07zM3.444 28.885a1.54 1.54 0 100 3.08 1.54 1.54 0 000-3.08zm7.006-3.251a.918.918 0 100-1.835.918.918 0 000 1.835zm31.147 28.782a1.385 1.385 0 100 2.77 1.385 1.385 0 000-2.77zM39.55 10.218a1.195 1.195 0 100-2.389 1.195 1.195 0 000 2.39zm-2.07 34.527l-1.565-1.022-.044-1.869a.76.76 0 00-1.24-.575l-1.456 1.172-1.79-.535a.762.762 0 00-.93 1l.665 1.747-1.062 1.538a.762.762 0 00.664 1.193l1.866-.092 1.134 1.485a.762.762 0 001.341-.263l.49-1.803 1.762-.62a.762.762 0 00.165-1.356zm-2.81.672a.761.761 0 00-.483.519l-.19.7-.44-.576a.76.76 0 00-.606-.3l-.038.001-.725.036.412-.597a.762.762 0 00.085-.704l-.258-.678.696.208a.762.762 0 00.696-.137l.565-.455.017.726a.76.76 0 00.345.62l.608.397-.684.24zM20.643 31.269l1.866-.093 1.134 1.486a.76.76 0 001.34-.263l.49-1.803 1.764-.62a.763.763 0 00.164-1.356l-1.564-1.023-.045-1.868a.762.762 0 00-1.239-.575l-1.456 1.171-1.79-.535a.761.761 0 00-.93 1.001l.665 1.747-1.063 1.537a.762.762 0 00.664 1.194zm1.964-2.9l-.258-.678.695.208a.762.762 0 00.696-.136l.566-.455.017.726a.762.762 0 00.345.62l.608.396-.686.242a.76.76 0 00-.482.519l-.19.7-.441-.576a.762.762 0 00-.644-.3l-.725.037.413-.598a.761.761 0 00.086-.704zm5.815 15.848l-5.494-2.642-.938-6.023a.762.762 0 00-1.303-.409l-4.21 4.409-6.018-.97a.762.762 0 00-.791 1.114l2.891 5.366-2.781 5.424a.762.762 0 00.814 1.097l5.997-1.091 4.3 4.32a.762.762 0 001.294-.435l.815-6.04 5.438-2.754a.762.762 0 00-.014-1.366zm-6.47 2.941a.76.76 0 00-.41.578l-.662 4.908-3.494-3.51a.761.761 0 00-.676-.213l-4.873.887 2.26-4.407a.76.76 0 00-.007-.709l-2.35-4.36 4.89.787a.762.762 0 00.672-.226l3.42-3.581.762 4.893a.762.762 0 00.423.57l4.463 2.145-4.418 2.238z" fill="#88DFFF"/></svg>