<svg width="25" height="25" fill="none" xmlns="http://www.w3.org/2000/svg"><g clip-path="url(#clip0)"><path opacity=".8" d="M24.766 7.156s-.234-1.829-.977-2.66c-.937-1.039-2.03-1.08-2.5-1.122-3.554-.249-8.789-.249-8.789-.249s-5.234 0-8.75.25c-.508.04-1.562.082-2.5 1.121-.742.79-.976 2.66-.976 2.66S0 9.316 0 11.478v2.036c0 2.16.235 4.322.235 4.322s.234 1.828.976 2.66c.938 1.038 2.188 1.038 2.774 1.121 1.992.208 8.515.25 8.515.25s5.235 0 8.75-.291c.508-.042 1.563-.083 2.5-1.122.742-.79.977-2.66.977-2.66s.273-2.16.273-4.322v-2.036c0-2.12-.234-4.28-.234-4.28z" fill="#414141"/><path d="M9.766 8.943v7.48l6.758-3.74-6.758-3.74z" fill="#fff"/></g><defs><clipPath id="clip0"><path fill="#fff" d="M0 0h25v25H0z"/></clipPath></defs></svg>